 <svg  version="1.0" xmlns="http://www.w3.org/2000/svg"  width="1500.000000pt" height="1500.000000pt" viewBox="0 0 1500.000000 1500.000000"  preserveAspectRatio="xMidYMid meet">  <g transform="translate(0.000000,1500.000000) scale(0.100000,-0.100000)" fill="#c11717" stroke="none"> <path d="M4256 14291 c-18 -7 -18 -8 5 -14 52 -14 125 -3 97 14 -16 11 -76 10 -102 0z"/> <path d="M4035 14259 c-9 -14 -5 -17 30 -21 21 -2 30 2 33 15 3 13 -3 17 -27 17 -16 0 -33 -5 -36 -11z"/> <path d="M4490 14255 c0 -13 8 -16 38 -13 20 2 37 8 37 13 0 6 -17 11 -37 13 -30 3 -38 0 -38 -13z"/> <path d="M3890 14226 c0 -10 9 -16 21 -16 24 0 21 23 -4 28 -10 2 -17 -3 -17 -12z"/> <path d="M4636 14231 c-4 -5 1 -14 10 -19 21 -12 56 -3 51 12 -5 14 -53 20 -61 7z"/> <path d="M3530 14135 c0 -9 5 -15 11 -13 6 2 11 8 11 13 0 5 -5 11 -11 13 -6 2 -11 -4 -11 -13z"/> <path d="M4905 14141 c-7 -12 12 -24 25 -16 11 7 4 25 -10 25 -5 0 -11 -4 -15 -9z"/> <path d="M3460 14106 c0 -15 24 -28 34 -19 13 14 5 33 -14 33 -11 0 -20 -6 -20 -14z"/> <path d="M3380 14075 c0 -11 7 -15 23 -13 12 2 22 8 22 13 0 6 -10 11 -22 13 -16 2 -23 -2 -23 -13z"/> <path d="M4051 14070 c-218 -32 -427 -91 -661 -186 -19 -8 -44 -18 -55 -21 -59 -19 -314 -154 -423 -225 -15 -10 -34 -21 -42 -25 -27 -12 -239 -173 -323 -245 -86 -74 -180 -169 -225 -228 -15 -19 -32 -39 -39 -43 -20 -13 -99 -131 -149 -226 -13 -24 -28 -49 -33 -55 -4 -6 -11 -20 -14 -31 -3 -11 -15 -45 -26 -75 -63 -166 -60 -315 15 -560 7 -25 21 -72 30 -105 23 -87 40 -143 58 -201 9 -29 16 -61 16 -72 0 -12 4 -23 9 -26 5 -3 12 -23 15 -43 4 -21 13 -58 21 -83 7 -25 27 -97 44 -160 17 -63 37 -137 45 -165 8 -27 22 -79 31 -115 10 -36 23 -83 30 -105 7 -22 21 -69 30 -105 43 -166 45 -170 135 -261 63 -62 105 -95 155 -120 66 -32 70 -36 67 -64 -17 -158 -8 -279 23 -305 17 -15 70 7 89 35 21 32 21 52 1 35 -16 -13 -35 -6 -35 14 0 7 9 21 21 32 21 19 21 18 51 -15 26 -29 34 -32 63 -27 65 13 67 45 7 109 -37 38 -57 46 -64 25 -3 -7 -13 10 -23 37 -10 28 -28 61 -40 75 -23 25 -62 160 -145 495 -21 84 -44 167 -62 225 -7 19 -15 53 -19 75 -10 55 -113 459 -135 530 l-18 57 22 18 c12 10 22 23 22 28 0 15 1000 999 1038 1022 18 11 32 26 32 34 0 19 -50 29 -83 17 -24 -9 -260 -244 -810 -806 -97 -100 -195 -192 -218 -205 -84 -51 -81 -45 -59 -125 11 -38 24 -90 29 -115 5 -25 21 -88 35 -140 31 -116 62 -240 86 -340 51 -211 61 -249 75 -297 71 -244 92 -369 60 -357 -8 4 -15 10 -15 16 0 5 -23 32 -51 61 -70 70 -122 181 -166 347 -19 74 -41 160 -50 190 -8 30 -19 72 -24 94 -5 21 -16 50 -23 65 -7 14 -17 48 -21 76 -4 27 -15 72 -25 100 -10 27 -21 66 -25 85 -3 19 -12 49 -20 65 -7 17 -20 57 -29 90 -26 109 -38 150 -48 169 -18 35 7 41 58 12 25 -14 56 -26 67 -26 19 0 19 1 2 20 -10 11 -26 22 -36 25 -42 14 -115 100 -142 168 -15 38 -25 71 -23 75 2 4 -1 36 -9 71 -11 52 -11 83 0 176 7 62 20 124 28 137 7 12 20 43 27 68 7 25 23 59 35 75 12 17 25 42 28 56 4 14 20 40 37 57 16 18 30 37 30 44 0 7 18 29 41 50 22 20 38 42 34 48 -3 5 1 10 9 10 9 0 16 9 16 20 0 11 7 20 15 20 8 0 20 10 26 22 7 13 28 36 47 53 19 16 58 54 88 83 30 28 60 52 66 52 16 1 78 56 78 70 0 6 8 13 18 17 9 3 32 17 49 30 18 13 50 32 71 41 21 10 49 29 63 42 30 32 74 60 93 60 7 0 28 14 46 30 18 17 39 30 47 30 8 0 28 11 45 25 16 14 39 25 50 25 11 0 22 8 25 19 3 13 11 17 25 13 13 -3 24 1 30 12 6 11 16 14 35 10 19 -5 30 -2 39 10 7 10 27 21 46 26 18 4 56 17 83 28 74 29 175 63 220 73 21 6 53 16 70 23 16 8 75 21 130 31 55 9 122 24 149 32 76 24 469 12 521 -16 20 -10 44 -17 54 -14 10 3 38 -5 62 -16 23 -12 48 -21 54 -21 7 0 36 -25 64 -55 29 -30 55 -55 60 -55 13 0 91 -62 91 -73 0 -10 7 -19 61 -75 49 -52 59 -78 67 -179 l8 -98 15 47 15 48 37 -31 c20 -16 69 -73 108 -125 39 -52 75 -94 79 -94 5 0 12 -9 15 -20 3 -11 21 -41 38 -67 30 -45 49 -70 152 -204 22 -29 43 -61 47 -71 4 -10 12 -18 18 -18 16 0 59 -53 60 -73 0 -10 20 -40 45 -66 25 -26 45 -53 45 -58 0 -6 18 -33 40 -61 22 -27 40 -55 40 -60 0 -6 10 -19 23 -29 25 -19 73 -135 63 -151 -3 -6 -6 -56 -7 -113 -1 -70 -6 -110 -15 -124 -8 -11 -14 -31 -14 -46 0 -19 -5 -26 -17 -25 -14 1 -19 -9 -23 -44 -6 -50 -15 -69 -42 -88 -10 -7 -18 -17 -18 -21 0 -16 -78 -126 -114 -160 -20 -19 -36 -41 -36 -48 0 -7 -17 -24 -38 -38 -21 -13 -45 -38 -55 -55 -10 -16 -27 -35 -38 -40 -10 -6 -19 -17 -19 -25 0 -8 -13 -21 -30 -30 -16 -9 -30 -19 -30 -24 0 -5 -13 -14 -29 -19 -16 -6 -34 -19 -40 -30 -11 -20 -140 -112 -158 -112 -5 0 -29 -18 -54 -40 -24 -22 -48 -40 -52 -40 -5 0 -32 -23 -60 -51 -29 -28 -74 -62 -102 -75 -27 -14 -57 -31 -65 -39 -24 -21 -77 -45 -100 -45 -11 0 -20 -6 -20 -13 0 -7 -30 -25 -67 -41 -38 -15 -75 -31 -83 -36 -8 -5 -35 -19 -60 -31 -25 -12 -56 -31 -69 -41 -13 -10 -36 -18 -50 -18 -15 0 -34 -8 -43 -19 -8 -10 -35 -25 -59 -33 -200 -68 -249 -83 -324 -98 -58 -12 -121 -29 -150 -40 -70 -26 -145 -42 -255 -56 -197 -25 -274 -32 -284 -26 -12 7 -68 10 -226 12 -197 2 -240 -12 -167 -54 63 -36 129 -48 304 -53 180 -5 281 4 512 48 268 51 532 138 826 272 158 72 353 175 386 203 8 8 19 14 23 14 4 0 19 8 34 19 15 10 65 44 112 75 126 83 224 153 270 194 8 7 51 42 96 77 77 61 260 252 373 390 70 86 80 105 151 311 24 69 43 225 39 316 -4 70 -6 76 -54 138 -27 36 -55 69 -62 73 -7 4 -13 13 -13 19 0 6 -19 34 -43 62 -23 28 -70 88 -102 134 -89 123 -189 260 -235 322 -22 30 -75 102 -117 160 -42 58 -101 134 -132 169 -59 69 -86 102 -166 203 -27 35 -55 67 -62 71 -7 4 -13 12 -13 18 0 25 -114 159 -135 159 -6 0 -23 12 -38 28 -14 15 -43 35 -64 46 -21 10 -46 22 -56 27 -33 17 -102 37 -172 49 -38 7 -92 16 -118 21 -76 14 -291 9 -426 -11z m-1161 -3690 c0 -16 -7 -20 -32 -20 -51 0 -61 11 -52 56 3 21 9 43 12 48 8 14 72 -61 72 -84z"/> <path d="M4970 14083 c0 -13 68 -83 79 -83 22 0 10 34 -21 62 -30 27 -58 37 -58 21z"/> <path d="M3315 14051 c-7 -12 12 -24 25 -16 11 7 4 25 -10 25 -5 0 -11 -4 -15 -9z"/> <path d="M3254 14019 c-7 -12 15 -31 28 -23 4 3 8 12 8 20 0 17 -26 19 -36 3z"/> <path d="M3200 13985 c0 -8 7 -15 15 -15 8 0 15 7 15 15 0 8 -7 15 -15 15 -8 0 -15 -7 -15 -15z"/> <path d="M3146 13963 c-11 -11 -6 -23 9 -23 8 0 15 4 15 9 0 13 -16 22 -24 14z"/> <path d="M5092 13961 c4 -13 18 -16 19 -4 0 4 -5 9 -11 12 -7 2 -11 -2 -8 -8z"/> <path d="M2930 13865 c0 -8 7 -15 15 -15 8 0 15 7 15 15 0 8 -7 15 -15 15 -8 0 -15 -7 -15 -15z"/> <path d="M2873 13836 c-4 -8 -19 -16 -33 -18 -29 -4 -30 -22 0 -26 11 -2 23 3 26 12 3 9 15 16 25 16 10 0 19 7 19 15 0 19 -26 20 -37 1z"/> <path d="M5277 13774 c-13 -14 -7 -36 16 -55 26 -22 37 -24 37 -6 0 18 -44 70 -53 61z"/> <path d="M2510 13594 c0 -9 5 -14 12 -12 18 6 21 28 4 28 -9 0 -16 -7 -16 -16z"/> <path d="M5455 13520 c-10 -17 12 -37 25 -24 8 8 6 15 -4 23 -10 9 -16 9 -21 1z"/> <path d="M5510 13442 c0 -23 19 -42 42 -42 22 0 24 18 3 26 -8 4 -15 12 -15 20 0 8 -7 14 -15 14 -8 0 -15 -8 -15 -18z"/> <path d="M2333 13437 c-7 -7 -22 -21 -33 -31 -11 -11 -17 -22 -14 -25 4 -3 9 0 11 7 3 6 11 12 18 12 7 0 20 11 29 25 17 26 10 33 -11 12z"/> <path d="M2244 13355 c-4 -8 -12 -15 -20 -15 -8 0 -14 -7 -14 -15 0 -8 -7 -15 -15 -15 -8 0 -15 -7 -15 -15 0 -8 3 -15 6 -15 8 0 84 76 84 84 0 12 -21 5 -26 -9z"/> <path d="M5635 13299 c-10 -15 3 -25 16 -12 7 7 7 13 1 17 -6 3 -14 1 -17 -5z"/> <path d="M5713 13173 c9 -9 19 -14 23 -11 10 10 -6 28 -24 28 -15 0 -15 -1 1 -17z"/> <path d="M2030 13085 c0 -8 7 -15 15 -15 8 0 15 7 15 15 0 8 -7 15 -15 15 -8 0 -15 -7 -15 -15z"/> <path d="M5780 13085 c0 -8 7 -15 15 -15 8 0 15 7 15 15 0 8 -7 15 -15 15 -8 0 -15 -7 -15 -15z"/> <path d="M1988 13021 c-20 -37 -13 -45 21 -24 14 10 27 18 29 19 1 0 0 9 -4 18 -9 24 -27 19 -46 -13z"/> <path d="M5847 13013 c-14 -13 -6 -30 17 -41 21 -9 23 -8 19 8 -6 23 -27 42 -36 33z"/> <path d="M1947 12964 c-11 -11 -8 -44 3 -44 15 0 24 30 13 41 -5 5 -12 6 -16 3z"/> <path d="M4882 12958 c-19 -19 -14 -30 8 -18 11 6 20 15 20 20 0 14 -14 12 -28 -2z"/> <path d="M1915 12910 c-7 -12 2 -30 16 -30 12 0 12 27 0 35 -5 3 -12 1 -16 -5z"/> <path d="M4741 12792 c-39 -37 -71 -73 -71 -80 0 -22 17 -12 44 26 15 22 37 44 49 51 12 7 30 24 40 37 37 49 8 34 -62 -34z"/> <path d="M5986 12792 c-5 -8 45 -52 59 -52 11 0 5 20 -12 40 -18 21 -38 26 -47 12z"/> <path d="M1884 12729 c-3 -6 -1 -16 5 -22 8 -8 11 -5 11 11 0 24 -5 28 -16 11z"/> <path d="M1856 12671 c-4 -5 -3 -17 0 -26 5 -13 8 -14 15 -3 5 7 9 19 9 26 0 14 -16 16 -24 3z"/> <path d="M4615 12671 c-3 -5 -1 -12 5 -16 12 -7 30 2 30 16 0 12 -27 12 -35 0z"/> <path d="M6115 12640 c-4 -6 -3 -16 3 -22 6 -6 12 -6 17 2 4 6 3 16 -3 22 -6 6 -12 6 -17 -2z"/> <path d="M4563 12618 c-18 -11 -33 -24 -33 -29 0 -5 -7 -9 -17 -9 -9 0 -14 -3 -10 -6 10 -11 97 35 97 51 0 8 -1 15 -2 14 -2 0 -18 -10 -35 -21z"/> <path d="M1826 12517 c-8 -49 2 -127 15 -127 5 0 9 38 9 85 0 91 -13 114 -24 42z"/> <path d="M4835 12470 c-6 -10 22 -71 38 -82 26 -16 37 34 17 73 -11 20 -45 26 -55 9z"/> <path d="M4179 12350 c-31 -26 -15 -26 18 0 14 11 21 20 15 20 -5 0 -20 -9 -33 -20z"/> <path d="M4641 12346 c-10 -11 -6 -17 19 -30 27 -13 32 -13 37 0 14 37 -30 61 -56 30z"/> <path d="M4095 12310 c-10 -11 -30 -20 -45 -20 -15 0 -33 -7 -40 -15 -14 -17 -67 -45 -85 -45 -18 0 -48 -37 -36 -44 12 -8 191 82 191 95 0 5 11 14 25 19 14 5 25 14 25 20 0 16 -15 12 -35 -10z"/> <path d="M4812 12274 c2 -15 9 -29 16 -32 10 -3 13 4 10 24 -2 15 -9 29 -16 32 -10 3 -13 -4 -10 -24z"/> <path d="M4464 12246 c-10 -26 1 -51 24 -54 17 -3 22 1 22 20 0 39 -35 64 -46 34z"/> <path d="M4386 12184 c-22 -21 -20 -44 4 -44 21 0 45 34 35 50 -9 14 -21 12 -39 -6z"/> <path d="M3807 12163 c-12 -11 -8 -23 8 -23 8 0 15 7 15 15 0 16 -12 20 -23 8z"/> <path d="M4752 12143 c5 -25 28 -28 28 -4 0 12 -6 21 -16 21 -9 0 -14 -7 -12 -17z"/> <path d="M4320 12106 c0 -46 15 -54 29 -15 12 34 7 49 -15 49 -9 0 -14 -11 -14 -34z"/> <path d="M6257 12128 c-7 -4 -22 -8 -34 -8 -21 0 -28 -16 -49 -120 -3 -14 -9 -34 -14 -45 -5 -11 -19 -48 -31 -82 -12 -35 -28 -68 -35 -74 -8 -6 -14 -16 -14 -21 0 -10 -38 -67 -56 -83 -6 -5 -24 -28 -40 -50 -101 -137 -246 -286 -399 -408 -60 -49 -119 -96 -130 -105 -11 -9 -27 -21 -37 -27 -9 -5 -36 -24 -60 -41 -23 -16 -67 -47 -95 -67 -29 -20 -57 -37 -62 -37 -5 0 -33 -16 -62 -36 -30 -20 -65 -42 -79 -49 -14 -7 -34 -22 -46 -32 -31 -28 -307 -173 -329 -173 -5 0 -35 -13 -65 -29 -30 -16 -95 -45 -145 -66 -103 -41 -119 -48 -160 -65 -16 -7 -48 -16 -70 -21 -49 -9 -154 -45 -169 -58 -6 -6 -25 -9 -42 -9 -16 1 -39 -4 -51 -11 -12 -6 -32 -11 -45 -11 -13 0 -47 -11 -76 -25 -30 -14 -57 -23 -61 -21 -6 4 -59 -4 -196 -29 -44 -9 -158 -19 -254 -23 l-175 -7 -47 -65 c-26 -36 -48 -70 -48 -77 -1 -7 -10 -17 -21 -23 -14 -8 -19 -17 -15 -30 3 -10 0 -22 -7 -27 -7 -4 -39 -62 -72 -128 -32 -66 -64 -132 -72 -146 -7 -14 -11 -29 -8 -32 4 -3 -3 -18 -14 -32 -12 -15 -24 -47 -28 -72 -4 -25 -15 -54 -25 -64 -13 -13 -17 -27 -13 -44 4 -18 1 -27 -10 -31 -10 -4 -16 -18 -16 -39 0 -18 -7 -38 -15 -45 -8 -7 -15 -27 -15 -45 0 -18 -7 -38 -15 -45 -8 -7 -15 -27 -15 -44 0 -17 -7 -40 -15 -50 -8 -11 -15 -37 -15 -57 0 -21 -4 -40 -9 -43 -5 -3 -12 -30 -16 -61 -3 -30 -11 -57 -16 -60 -5 -4 -9 -30 -9 -58 0 -29 -7 -65 -16 -82 -10 -20 -14 -44 -10 -71 3 -26 -2 -63 -14 -103 -19 -58 -27 -170 -14 -183 7 -8 7 -588 0 -595 -13 -13 -5 -121 14 -180 12 -38 17 -75 13 -97 -3 -22 1 -51 11 -76 9 -22 16 -65 16 -95 0 -29 5 -57 10 -60 6 -3 10 -23 10 -44 0 -20 7 -46 15 -57 8 -10 15 -38 15 -60 0 -24 6 -47 15 -54 8 -7 15 -27 15 -45 0 -18 7 -38 15 -45 8 -7 15 -27 15 -45 0 -18 7 -38 15 -45 8 -7 15 -27 15 -45 0 -18 7 -38 15 -45 9 -7 13 -21 9 -34 -3 -14 2 -28 15 -40 12 -11 21 -30 21 -42 0 -13 16 -57 35 -98 19 -41 35 -79 35 -83 0 -16 85 -178 98 -186 6 -4 12 -16 12 -26 0 -10 7 -24 15 -31 8 -7 15 -21 15 -31 0 -10 6 -22 13 -26 8 -4 26 -33 41 -63 29 -61 40 -80 73 -127 13 -17 23 -37 23 -43 0 -13 48 -78 92 -124 15 -16 31 -39 34 -50 4 -12 22 -36 40 -54 19 -18 43 -50 53 -70 11 -20 38 -55 61 -77 23 -22 61 -65 83 -95 53 -71 253 -271 337 -337 36 -28 79 -65 95 -83 17 -17 51 -43 77 -57 26 -14 55 -37 63 -49 9 -13 22 -24 30 -24 8 0 29 -12 47 -28 49 -41 125 -92 137 -92 6 0 15 -9 21 -20 6 -11 18 -20 27 -20 9 0 39 -15 67 -33 28 -19 68 -41 89 -51 20 -9 37 -21 37 -26 0 -6 11 -10 25 -10 14 0 28 -7 31 -15 4 -8 14 -15 24 -15 10 0 23 -7 30 -15 7 -8 19 -15 28 -15 8 0 23 -6 31 -14 21 -18 216 -102 258 -111 17 -3 37 -13 44 -21 6 -8 19 -12 29 -9 9 3 24 -3 35 -15 11 -12 31 -20 50 -20 17 0 35 -4 40 -9 13 -11 108 -41 132 -41 10 0 27 -7 37 -15 11 -8 32 -15 46 -15 14 0 35 -7 46 -15 10 -8 34 -15 52 -15 18 0 45 -6 60 -14 15 -7 45 -14 66 -14 22 -1 44 -6 50 -12 5 -5 32 -10 58 -10 27 0 65 -7 85 -15 21 -9 63 -15 102 -14 36 1 91 -4 121 -10 31 -7 181 -15 345 -18 251 -5 302 -3 370 12 44 9 103 16 131 16 28 -1 73 3 100 10 27 6 76 15 109 20 118 16 173 27 193 38 11 6 38 11 60 11 23 0 45 6 52 15 7 8 29 15 49 15 20 0 45 6 56 14 11 7 34 16 50 18 31 6 88 25 117 39 10 5 29 9 42 9 14 0 31 7 40 15 8 8 26 15 39 15 14 0 30 6 36 14 7 8 27 18 44 21 18 4 48 14 67 22 72 31 165 74 180 84 8 5 25 13 37 18 11 6 24 15 28 20 3 6 14 11 24 11 10 0 24 7 31 15 7 8 21 15 32 15 10 0 21 7 24 15 4 8 14 15 24 15 10 0 23 7 30 15 7 8 21 15 30 15 10 0 49 20 86 45 36 25 72 45 79 45 7 0 15 7 19 15 3 8 10 15 16 15 5 0 18 7 28 15 47 41 90 72 115 83 15 6 27 16 27 22 0 5 25 24 55 41 30 17 58 37 63 44 4 7 50 48 102 90 52 42 98 82 102 89 12 21 178 184 193 190 8 3 30 26 47 52 18 26 63 83 101 126 37 44 74 93 82 109 8 15 24 33 35 39 11 6 31 32 44 58 13 26 36 58 50 71 14 14 26 30 26 38 0 7 4 13 9 13 5 0 20 21 33 46 12 26 28 49 35 51 7 3 13 11 13 18 0 18 41 88 57 98 7 4 13 14 13 21 0 17 29 74 41 81 5 4 9 15 9 26 0 11 7 22 15 25 8 4 15 14 15 24 0 11 4 21 9 24 11 7 51 88 51 103 0 6 7 13 15 17 8 3 15 16 15 29 0 14 7 30 15 37 8 7 15 20 15 30 0 23 27 87 40 95 6 4 8 15 5 24 -3 10 1 24 10 31 9 8 13 21 9 32 -3 12 1 27 12 39 10 11 17 33 16 48 -1 16 5 34 13 41 8 7 15 27 15 45 0 20 6 35 15 39 10 3 15 19 15 43 0 21 7 47 15 57 8 11 15 34 15 51 0 17 7 40 15 51 8 10 15 39 15 65 0 25 5 50 10 55 6 6 13 35 17 65 3 30 10 60 16 66 5 7 11 46 12 85 2 40 7 84 13 99 5 14 11 79 13 145 3 187 4 552 1 629 -2 39 -3 94 -2 124 0 29 -7 78 -16 108 -9 30 -13 68 -10 84 3 17 -1 49 -9 72 -8 23 -15 60 -15 83 0 22 -7 49 -15 60 -8 10 -15 39 -15 64 0 25 -7 54 -15 64 -8 11 -15 34 -15 51 0 17 -7 40 -15 51 -8 10 -15 36 -15 57 0 24 -5 40 -15 43 -9 4 -15 19 -15 39 0 18 -7 38 -16 46 -10 8 -14 22 -10 40 3 19 -1 32 -15 45 -13 12 -18 26 -15 40 4 13 0 27 -9 34 -9 7 -13 21 -10 30 3 9 -1 23 -10 30 -8 7 -15 21 -15 31 0 10 -4 21 -10 24 -5 3 -10 13 -10 22 0 19 -97 220 -111 228 -5 4 -9 15 -9 26 0 11 -7 22 -15 25 -8 4 -15 17 -15 30 0 12 -6 27 -13 31 -7 4 -20 24 -27 43 -8 19 -29 57 -47 85 -18 27 -33 53 -33 57 0 7 -101 157 -148 219 -15 19 -42 55 -59 79 -18 24 -33 49 -33 56 0 8 -9 19 -20 26 -11 7 -48 49 -82 93 -34 44 -66 82 -70 83 -9 4 -255 250 -260 260 -2 4 -32 30 -68 59 -36 28 -81 68 -100 88 -19 20 -52 46 -74 57 -21 11 -54 35 -72 54 -19 19 -40 34 -47 34 -8 0 -26 14 -42 30 -16 17 -34 30 -41 30 -7 0 -17 6 -21 13 -4 8 -15 17 -23 21 -21 9 -88 52 -189 117 -25 16 -53 29 -63 29 -10 0 -21 7 -24 15 -4 8 -16 15 -29 15 -12 0 -28 7 -35 15 -7 8 -18 15 -26 15 -7 0 -19 6 -26 13 -15 14 -180 97 -193 97 -5 0 -16 6 -24 13 -9 8 -38 20 -66 27 -27 7 -61 20 -75 28 -14 9 -35 15 -46 14 -12 -2 -24 4 -27 12 -4 10 -19 16 -40 16 -19 0 -37 3 -40 6 -10 10 -110 43 -132 44 -11 0 -29 7 -39 15 -11 8 -34 15 -52 15 -17 0 -37 7 -44 15 -7 9 -30 15 -54 15 -22 0 -50 7 -60 15 -11 8 -35 15 -53 15 -19 0 -47 7 -64 15 -19 10 -41 14 -63 10 -21 -4 -47 -1 -72 10 -40 17 -104 22 -123 11 -6 -4 -48 2 -94 13 -70 17 -120 21 -335 23 -140 2 -259 0 -265 -4z m633 -118 c30 -5 93 -14 140 -20 136 -18 266 -46 287 -62 7 -6 17 -7 22 -3 6 3 20 1 32 -6 19 -10 104 -34 209 -58 19 -5 55 -18 80 -30 25 -11 59 -21 77 -21 18 0 55 -13 83 -30 28 -16 55 -30 60 -30 4 0 41 -16 81 -35 41 -19 81 -35 91 -35 9 0 33 -13 51 -30 19 -16 40 -30 46 -30 17 0 132 -58 153 -77 9 -8 21 -12 27 -9 5 4 18 -2 28 -13 10 -11 30 -22 45 -26 14 -4 34 -15 43 -25 9 -10 23 -16 31 -13 8 3 25 -9 40 -26 14 -17 31 -31 38 -31 7 0 23 -13 36 -30 14 -16 30 -29 36 -30 7 0 34 -18 60 -40 27 -22 55 -40 62 -40 7 0 20 -16 28 -35 12 -29 18 -34 37 -30 18 5 38 -9 99 -67 42 -40 104 -95 137 -123 46 -38 59 -55 55 -69 -4 -11 -2 -16 4 -12 11 7 182 -157 182 -174 0 -6 12 -15 26 -20 20 -8 24 -14 19 -32 -6 -17 -4 -20 9 -15 12 5 23 -3 37 -28 12 -19 25 -35 29 -35 5 0 34 -39 66 -87 31 -49 64 -96 72 -106 9 -10 17 -24 18 -32 1 -8 20 -34 43 -57 22 -24 43 -55 46 -70 4 -15 11 -30 16 -34 5 -3 20 -26 33 -52 13 -26 34 -58 47 -71 18 -19 20 -27 11 -42 -17 -27 -15 -30 13 -23 19 5 25 2 25 -10 0 -18 16 -50 41 -81 9 -11 19 -34 22 -51 3 -18 18 -49 32 -69 14 -21 25 -51 25 -66 0 -18 7 -32 20 -39 11 -6 20 -19 20 -29 0 -23 26 -88 39 -95 5 -3 7 -15 4 -25 -3 -10 0 -22 6 -25 6 -4 11 -17 11 -29 0 -12 9 -35 20 -52 14 -20 18 -39 14 -58 -4 -20 1 -35 20 -57 14 -17 28 -47 31 -68 4 -20 11 -49 17 -64 6 -16 8 -37 5 -49 -3 -12 0 -31 8 -43 7 -11 16 -41 20 -66 4 -25 16 -81 27 -125 11 -43 22 -118 23 -165 2 -47 8 -123 14 -170 17 -136 18 -699 1 -800 -5 -30 -10 -84 -11 -120 -1 -36 -10 -92 -20 -124 -11 -33 -19 -81 -19 -107 0 -39 -3 -47 -15 -43 -15 6 -15 5 -20 -75 -1 -16 -7 -42 -13 -58 -11 -27 -46 -161 -61 -235 -5 -21 -13 -43 -18 -50 -5 -7 -16 -33 -23 -57 -8 -24 -20 -45 -27 -48 -7 -3 -13 -18 -13 -33 0 -16 -7 -30 -15 -34 -9 -3 -15 -18 -15 -34 0 -16 -7 -35 -15 -42 -8 -7 -15 -24 -15 -39 0 -14 -14 -55 -31 -91 -43 -87 -40 -81 -74 -131 -16 -24 -36 -55 -43 -69 -7 -14 -24 -43 -37 -65 -14 -22 -25 -48 -25 -57 0 -10 -9 -23 -20 -30 -11 -7 -20 -23 -20 -36 0 -14 -13 -36 -30 -52 -16 -15 -30 -33 -30 -39 0 -6 -9 -15 -21 -21 -11 -6 -19 -19 -17 -28 1 -10 -18 -38 -45 -64 -26 -26 -47 -56 -47 -67 0 -11 -16 -32 -35 -47 -19 -14 -35 -33 -35 -41 0 -8 -29 -43 -65 -78 -36 -34 -65 -66 -65 -72 0 -5 -16 -24 -35 -43 -19 -19 -35 -40 -35 -46 0 -7 -8 -11 -17 -10 -11 0 -17 -6 -17 -16 1 -10 -3 -18 -9 -18 -5 0 -62 -52 -126 -115 -155 -153 -161 -159 -196 -178 -16 -9 -54 -39 -84 -67 -29 -27 -59 -50 -66 -50 -7 0 -15 -7 -19 -15 -3 -8 -12 -15 -19 -15 -8 0 -22 -9 -32 -20 -10 -11 -22 -20 -27 -20 -11 0 -78 -48 -96 -69 -6 -8 -31 -16 -55 -17 -23 -1 -46 -3 -51 -3 -4 -1 -6 -8 -3 -16 7 -16 -28 -44 -94 -75 -24 -12 -62 -30 -84 -42 -64 -34 -74 -38 -93 -38 -10 0 -36 -13 -58 -30 -21 -16 -48 -30 -58 -30 -11 0 -33 -11 -51 -24 -17 -14 -58 -32 -91 -42 -32 -9 -70 -25 -83 -35 -13 -11 -33 -19 -45 -19 -24 0 -95 -24 -135 -44 -14 -8 -49 -17 -76 -22 -27 -4 -65 -13 -83 -21 -18 -7 -36 -11 -41 -9 -11 7 -81 -13 -81 -24 0 -13 -25 -19 -170 -35 -74 -8 -151 -19 -170 -25 -139 -41 -785 -44 -1029 -6 -53 8 -132 20 -176 25 -113 14 -166 27 -211 49 -22 11 -61 23 -89 26 -57 8 -235 60 -278 82 -16 8 -39 14 -52 14 -12 0 -28 7 -35 15 -7 8 -30 20 -51 27 -22 6 -44 17 -50 25 -6 7 -26 13 -43 13 -18 0 -41 7 -52 15 -10 8 -26 15 -35 15 -9 0 -24 9 -34 20 -10 11 -23 20 -29 20 -17 0 -99 44 -137 73 -19 14 -54 33 -79 43 -25 9 -54 25 -66 36 -11 10 -24 18 -30 18 -5 0 -20 9 -34 20 -14 11 -31 20 -39 20 -8 0 -21 7 -30 15 -33 32 -110 85 -124 85 -7 0 -27 15 -44 33 -55 56 -165 136 -189 137 -6 0 -22 15 -35 33 -13 18 -53 60 -89 92 -36 33 -66 67 -68 77 -2 12 -12 18 -28 18 -14 0 -24 6 -24 15 0 7 -7 18 -16 23 -8 5 -21 20 -27 33 -7 13 -22 25 -33 27 -12 2 -43 32 -72 71 -29 37 -63 74 -77 81 -17 9 -23 19 -20 31 8 23 -12 34 -31 18 -13 -11 -14 -9 -9 14 5 17 3 27 -4 27 -6 0 -11 9 -11 20 0 11 -7 23 -15 26 -9 4 -21 17 -28 29 -7 13 -32 46 -57 74 -66 75 -90 107 -90 123 0 8 -13 28 -30 44 -16 16 -30 39 -30 50 0 12 -7 25 -16 28 -10 4 -14 13 -11 26 4 14 -2 25 -18 36 -13 8 -28 27 -34 42 -6 15 -28 59 -51 97 -22 39 -45 81 -51 95 -6 14 -15 32 -20 40 -37 63 -49 94 -44 111 4 10 2 19 -4 19 -5 0 -12 14 -16 31 -4 18 -12 29 -19 26 -9 -4 -11 3 -8 19 3 17 -2 32 -17 45 -11 11 -23 32 -27 47 -9 43 -37 126 -46 137 -4 5 -8 24 -8 43 0 19 -9 49 -20 68 -19 29 -31 74 -60 211 -5 24 -16 53 -23 65 -14 22 -18 47 -37 228 -4 41 -13 95 -20 120 -29 105 -5 1064 27 1083 7 4 13 22 12 40 -1 58 22 210 37 238 8 16 14 37 14 49 0 11 4 20 9 20 4 0 11 26 15 57 4 31 15 71 26 88 10 17 22 51 26 75 4 25 10 50 14 55 4 6 10 26 14 45 3 19 20 64 37 99 17 34 33 79 36 100 3 20 17 47 30 60 12 13 23 30 23 38 0 8 9 23 20 35 11 12 20 34 20 49 0 14 8 37 18 50 18 23 53 93 66 132 3 11 15 21 26 24 12 3 19 12 18 22 -2 10 3 15 14 13 9 -1 19 6 23 18 4 13 15 20 30 20 13 0 27 5 30 10 3 6 16 10 27 10 18 0 20 -4 15 -37 -4 -20 -13 -41 -22 -45 -16 -10 -21 -48 -6 -48 5 0 14 12 19 28 6 15 28 46 50 69 36 37 45 42 103 48 96 10 125 5 122 -22 -5 -39 16 -29 111 60 22 20 36 26 51 22 55 -19 80 -16 120 11 32 21 52 27 99 28 58 1 59 2 71 36 13 36 12 36 78 23 15 -3 33 -1 40 5 7 6 35 18 62 27 46 16 49 16 62 -1 9 -12 13 -14 13 -4 0 27 32 50 71 50 26 0 45 7 58 21 11 12 24 18 30 14 6 -3 26 3 44 13 20 13 42 18 59 15 22 -4 30 0 39 21 8 17 20 26 35 26 12 0 29 7 38 15 8 8 23 15 34 15 11 0 31 9 46 21 14 11 49 29 77 39 28 9 55 23 59 29 4 8 17 10 36 5 26 -7 28 -6 15 10 -8 9 -12 18 -10 20 2 1 31 18 64 37 68 39 103 50 159 52 42 2 49 10 63 72 7 35 12 40 43 46 42 7 100 36 100 50 0 5 19 19 43 29 24 11 55 31 70 44 15 14 34 23 41 20 9 -3 22 6 33 23 36 57 70 84 97 77 18 -4 27 -1 35 14 15 27 14 30 -6 35 -10 2 -5 3 10 1 18 -2 30 2 33 11 4 8 10 15 16 15 12 0 114 105 122 126 4 9 9 14 13 10 8 -8 53 34 53 50 0 6 9 14 20 17 11 3 20 13 20 23 0 9 6 25 14 33 8 9 26 39 41 68 21 43 32 54 63 63 76 22 237 31 484 27 328 -5 497 -23 653 -67 17 -5 48 -12 70 -15 41 -7 117 -30 145 -45 9 -4 31 -11 50 -15 19 -4 40 -11 45 -15 6 -4 35 -15 65 -24 30 -9 78 -26 105 -37 28 -11 59 -24 70 -28 11 -5 45 -18 75 -31 30 -12 71 -28 90 -35 19 -8 67 -31 105 -53 39 -22 101 -57 138 -77 74 -39 216 -132 257 -167 14 -12 46 -34 72 -50 55 -34 62 -51 53 -124 l-7 -55 56 -60 c31 -33 56 -64 56 -70 0 -5 7 -9 16 -9 14 0 16 8 12 49 -4 40 -12 56 -39 83 -34 34 -69 75 -69 82 0 2 9 6 20 9 25 7 25 15 -3 50 -57 73 -82 99 -126 128 -25 17 -50 38 -54 45 -4 8 -17 14 -27 14 -11 0 -20 6 -20 13 0 6 -23 23 -51 35 -28 13 -70 37 -94 53 -24 16 -64 38 -88 49 -24 11 -50 27 -57 35 -7 8 -19 15 -26 15 -8 0 -22 9 -31 20 -10 11 -28 20 -41 20 -27 0 -97 31 -147 65 -20 13 -62 29 -93 36 -31 7 -66 18 -77 26 -11 7 -30 13 -43 13 -12 0 -25 6 -28 14 -7 19 -52 36 -94 35 -54 -1 -103 12 -126 32 -11 11 -28 17 -36 14 -19 -7 -163 30 -193 49 -12 8 -33 12 -46 9 -14 -3 -82 5 -150 17 -68 12 -155 21 -194 21 -263 -1 -519 9 -526 20 -6 10 -11 10 -23 0 -20 -17 -41 -5 -26 14 7 8 9 23 5 35 -7 23 10 28 19 5 10 -26 35 -5 34 29 -1 17 4 41 10 53 7 12 12 35 12 52 0 43 30 90 65 101 37 11 489 3 565 -10z"/> <path d="M7413 11763 c9 -2 25 -2 35 0 9 3 1 5 -18 5 -19 0 -27 -2 -17 -5z"/> <path d="M8000 11550 c0 -5 7 -10 15 -10 8 0 15 5 15 10 0 6 -7 10 -15 10 -8 0 -15 -4 -15 -10z"/> <path d="M8880 10973 c1 -12 65 -79 84 -86 26 -10 18 13 -16 44 -35 34 -68 54 -68 42z"/> <path d="M8260 10943 c-50 -4 -60 -9 -114 -57 -42 -37 -58 -57 -53 -69 5 -13 12 -14 39 -6 18 5 46 9 62 9 27 0 28 -2 23 -37 -3 -21 -9 -53 -12 -70 -7 -29 -5 -33 14 -33 11 0 21 3 21 8 0 4 24 33 54 65 50 53 54 61 58 115 4 57 -4 84 -26 80 -6 -1 -36 -3 -66 -5z"/> <path d="M8751 10808 c13 -18 48 -58 79 -89 31 -32 64 -69 73 -83 11 -16 27 -26 42 -26 45 0 40 22 -13 70 -29 26 -52 51 -52 56 0 16 -111 104 -132 104 -19 0 -18 -1 3 -32z"/> <path d="M9052 10798 c2 -6 10 -14 16 -16 7 -2 10 2 6 12 -7 18 -28 22 -22 4z"/> <path d="M8540 10578 c0 -36 33 -118 47 -118 7 0 13 -7 13 -15 0 -8 -7 -15 -15 -15 -23 0 -18 -17 7 -23 12 -4 28 -1 35 5 20 17 28 1 9 -18 -26 -25 -16 -49 19 -49 29 0 30 1 33 55 3 51 0 58 -28 83 -16 15 -30 32 -30 37 0 14 -66 80 -80 80 -5 0 -10 -10 -10 -22z"/> <path d="M8965 10527 c-64 -47 -69 -54 -72 -120 -5 -86 0 -92 77 -78 62 10 79 21 111 71 16 24 15 26 -27 63 -29 26 -44 47 -44 63 0 29 -7 30 -45 1z"/> <path d="M8477 10442 c-10 -10 -17 -22 -17 -25 0 -11 48 -8 55 3 3 6 15 10 26 10 23 0 25 15 3 24 -28 11 -50 6 -67 -12z"/> <path d="M9380 10424 c0 -7 9 -22 20 -35 25 -31 26 -12 0 21 -11 14 -20 20 -20 14z"/> <path d="M9170 10356 c0 -7 10 -24 23 -38 12 -14 42 -52 67 -86 25 -34 53 -61 62 -62 15 0 15 3 2 28 -7 16 -23 37 -34 47 -11 10 -20 24 -20 31 0 7 -16 26 -35 41 -19 15 -35 34 -35 41 0 6 -7 12 -15 12 -8 0 -15 -6 -15 -14z"/> <path d="M8300 10275 c-23 -24 -41 -47 -39 -53 2 -5 21 -28 41 -51 l38 -41 109 0 108 0 42 45 c45 49 48 58 25 77 -9 7 -27 23 -41 36 -22 21 -37 24 -133 27 l-107 3 -43 -43z"/> <path d="M6416 10274 c-3 -9 -6 -25 -6 -36 0 -11 -6 -32 -14 -46 -8 -15 -22 -56 -31 -92 -18 -71 -70 -251 -90 -315 -12 -41 -34 -116 -62 -215 -8 -30 -20 -66 -25 -80 -17 -43 -38 -111 -63 -205 -23 -86 -33 -118 -61 -195 -7 -19 -20 -69 -30 -110 -9 -41 -25 -102 -34 -135 l-18 -60 -83 -2 c-46 -1 -328 -2 -626 -3 -536 -1 -583 2 -583 31 0 6 -10 24 -22 39 -45 55 -58 74 -58 82 0 4 -7 8 -15 8 -12 0 -15 -13 -14 -60 1 -33 6 -63 10 -66 16 -10 9 -21 -21 -36 l-30 -15 67 -64 c38 -35 100 -88 138 -118 39 -30 90 -72 115 -93 25 -22 80 -67 122 -101 42 -34 93 -75 114 -92 20 -16 44 -34 53 -40 10 -5 26 -18 37 -28 21 -21 251 -206 347 -280 136 -105 157 -127 157 -157 0 -16 -5 -32 -10 -35 -6 -4 -9 -12 -8 -18 1 -7 -8 -34 -20 -61 -12 -27 -22 -57 -22 -67 0 -10 -6 -36 -14 -56 -7 -21 -21 -65 -31 -98 -9 -33 -23 -78 -30 -100 -7 -22 -20 -69 -30 -105 -9 -36 -22 -78 -27 -95 -6 -16 -16 -55 -23 -85 -28 -113 -35 -141 -44 -158 -5 -9 -16 -44 -25 -77 -10 -33 -22 -73 -28 -90 -5 -16 -13 -46 -18 -65 -4 -19 -12 -46 -17 -60 -17 -41 -43 -133 -46 -159 -3 -36 22 -38 29 -2 4 17 13 36 20 42 8 6 14 20 14 31 0 11 6 34 14 51 12 30 29 90 46 167 9 39 26 90 45 135 26 59 45 129 45 164 0 20 10 56 21 81 18 40 48 133 68 215 4 17 13 40 19 52 7 12 12 35 12 51 0 16 12 60 26 98 14 38 29 83 34 99 4 17 13 43 19 58 6 16 11 39 11 52 0 40 18 38 68 -9 27 -26 52 -46 57 -46 4 0 25 -14 46 -31 36 -29 39 -34 39 -82 0 -30 -7 -60 -15 -71 -8 -11 -15 -31 -15 -45 0 -14 -7 -35 -15 -45 -8 -11 -15 -29 -15 -40 0 -12 -9 -45 -20 -74 -11 -29 -18 -57 -15 -63 4 -5 -1 -19 -9 -31 -18 -26 -21 -88 -5 -88 6 0 24 14 39 30 15 17 33 30 39 30 6 0 11 4 11 9 0 9 94 81 106 81 7 0 94 73 148 124 23 21 59 50 81 65 22 14 45 31 50 37 6 6 31 25 57 43 26 17 51 37 55 44 4 7 44 41 88 75 192 148 241 188 263 214 31 36 57 24 71 -34 19 -79 39 -146 51 -168 16 -31 4 -58 -41 -86 -22 -13 -48 -33 -58 -43 -10 -10 -44 -37 -75 -61 -31 -23 -56 -46 -56 -51 0 -5 -5 -9 -11 -9 -6 0 -52 -34 -101 -76 -50 -43 -117 -94 -149 -116 -32 -21 -63 -47 -69 -58 -6 -11 -16 -20 -23 -20 -7 0 -33 -20 -57 -45 -24 -25 -48 -45 -52 -45 -4 0 -16 -7 -25 -15 -69 -59 -105 -89 -131 -108 -109 -80 -222 -169 -229 -180 -4 -7 -26 -24 -48 -39 -22 -14 -54 -39 -72 -55 -17 -15 -44 -38 -60 -50 -16 -12 -42 -34 -57 -48 -16 -15 -47 -38 -69 -52 -23 -14 -66 -50 -97 -80 -54 -53 -85 -64 -108 -41 -9 9 -12 6 -12 -14 0 -15 -4 -30 -10 -33 -5 -3 -10 -15 -10 -26 0 -37 43 -21 111 41 10 8 50 41 90 73 41 32 125 99 187 150 63 51 124 99 136 107 43 30 362 288 375 304 7 9 19 16 26 16 6 0 27 15 46 33 19 17 57 50 84 72 28 21 63 52 79 67 32 30 60 36 73 15 13 -21 187 -167 199 -167 6 0 19 -9 30 -21 10 -12 66 -58 123 -103 58 -44 121 -95 140 -112 20 -17 83 -66 141 -109 58 -43 110 -83 115 -89 13 -16 191 -156 286 -227 42 -32 80 -62 83 -68 4 -6 14 -11 23 -11 12 0 14 7 10 36 -3 20 -13 44 -22 54 -8 9 -15 32 -15 51 -1 19 -7 45 -15 59 -8 14 -14 40 -15 58 0 18 -6 45 -14 60 -7 15 -16 44 -19 64 -3 21 -17 60 -31 89 -14 28 -26 62 -26 76 0 15 -7 51 -16 82 -9 31 -23 81 -31 111 -8 30 -21 69 -28 85 -8 17 -16 44 -19 60 -2 17 -12 55 -21 85 -9 30 -21 73 -27 95 -5 22 -16 54 -24 72 -8 17 -14 36 -14 43 0 11 -12 54 -42 145 -40 124 -50 166 -45 187 4 13 36 46 77 76 39 29 79 60 88 68 35 30 159 130 202 163 25 19 54 43 65 52 41 35 151 125 195 159 90 68 235 185 245 196 6 6 37 31 70 56 61 47 120 101 165 151 21 24 22 30 10 37 -9 6 -295 10 -702 10 -377 0 -693 3 -702 6 -9 3 -16 16 -16 28 0 12 -12 55 -26 96 -14 41 -29 91 -34 110 -5 19 -16 58 -24 85 -8 28 -22 73 -30 100 -8 28 -24 75 -36 105 -12 30 -25 73 -29 95 -4 22 -13 50 -19 62 -7 12 -12 35 -12 52 0 16 -4 32 -9 35 -5 3 -12 27 -16 53 -4 27 -18 75 -32 108 -13 33 -28 80 -33 105 -8 46 -29 117 -51 180 -6 19 -17 51 -24 70 -7 19 -18 51 -25 70 -7 19 -15 55 -19 80 -4 25 -10 51 -14 58 -11 17 -34 15 -41 -4z m54 -183 c0 -29 24 -108 47 -150 7 -15 13 -33 13 -42 0 -9 7 -33 15 -52 8 -20 15 -48 15 -61 0 -24 7 -51 65 -236 12 -41 30 -102 40 -135 9 -33 28 -94 42 -135 13 -41 27 -86 30 -100 3 -14 11 -39 19 -57 8 -17 14 -39 14 -50 1 -10 7 -29 15 -43 8 -14 14 -37 15 -51 0 -15 13 -60 30 -100 16 -41 30 -80 30 -86 0 -10 -32 -13 -127 -13 -71 0 -133 4 -139 8 -6 4 -17 39 -26 77 -9 39 -26 95 -38 125 -12 30 -25 69 -29 85 -4 17 -13 40 -19 52 -7 12 -12 35 -12 52 0 73 -43 111 -55 49 -3 -18 -12 -49 -19 -68 -28 -75 -46 -139 -46 -161 0 -13 -7 -37 -15 -53 -8 -15 -15 -43 -15 -61 0 -18 -7 -38 -15 -45 -8 -7 -15 -22 -15 -34 0 -12 -4 -26 -9 -31 -10 -11 -39 -107 -50 -170 -4 -22 -13 -50 -19 -62 -7 -12 -12 -34 -12 -48 0 -14 -6 -36 -12 -48 -13 -22 -30 -78 -49 -152 -5 -22 -12 -47 -16 -55 -4 -8 -12 -37 -19 -65 -34 -139 -43 -168 -55 -175 -8 -5 -36 11 -78 46 -36 30 -81 64 -98 75 -29 18 -33 26 -33 64 0 26 6 47 15 55 8 7 15 22 15 34 0 11 7 34 15 50 8 15 15 39 15 51 0 12 7 36 15 51 8 16 15 38 15 49 1 11 7 31 15 45 8 14 14 37 15 51 0 14 7 34 15 45 8 10 15 30 15 44 0 14 7 36 15 50 8 14 14 38 15 53 0 16 5 37 11 49 6 11 21 64 35 119 13 54 28 107 33 116 6 10 16 43 24 73 29 110 38 146 46 182 5 21 13 43 18 50 6 7 13 27 16 43 3 17 17 64 32 105 15 41 29 84 31 95 5 30 32 124 39 135 3 5 13 34 21 62 39 139 54 203 54 232 0 18 7 41 15 52 8 10 15 29 15 41 0 12 3 29 7 39 6 15 9 14 30 -10 13 -15 23 -40 23 -55z m-22 -973 c5 -7 13 -29 16 -48 4 -19 13 -51 20 -70 8 -19 22 -64 32 -100 9 -36 24 -73 32 -82 8 -9 11 -22 7 -27 -7 -13 -211 -15 -219 -3 -6 9 12 86 30 129 8 17 14 49 14 70 0 22 7 48 15 59 8 10 15 31 15 45 0 38 18 51 38 27z m-1785 -313 c1 -5 -10 -11 -25 -13 -16 -2 -28 1 -28 7 0 20 49 26 53 6z m1295 -88 c2 -14 -2 -35 -8 -47 -6 -12 -22 -62 -35 -112 -13 -50 -30 -95 -37 -100 -7 -4 -109 -7 -225 -6 -138 2 -216 -1 -223 -8 -7 -7 4 -21 37 -45 26 -19 52 -36 59 -39 20 -9 81 -67 99 -94 10 -14 24 -26 33 -26 8 0 25 -10 37 -22 12 -13 35 -33 51 -45 66 -51 162 -128 204 -164 69 -60 74 -64 121 -97 24 -17 61 -46 83 -66 21 -19 85 -70 142 -113 57 -42 104 -81 104 -86 0 -11 -62 -67 -75 -67 -5 0 -31 -20 -58 -45 -66 -62 -91 -67 -131 -24 -17 19 -58 55 -91 79 -33 24 -75 59 -93 77 -18 18 -38 33 -45 33 -7 1 -30 19 -52 41 -22 23 -62 56 -90 74 -27 18 -59 43 -70 55 -11 12 -40 36 -65 53 -25 17 -61 46 -80 63 -19 18 -57 50 -85 72 -27 22 -63 52 -80 66 -16 14 -34 25 -39 26 -5 0 -28 17 -51 38 -69 60 -95 81 -200 160 -55 42 -116 89 -135 106 -20 17 -58 49 -84 71 -92 76 -134 112 -165 143 -16 18 -37 32 -46 32 -8 0 -15 6 -15 14 0 11 8 13 33 9 21 -3 37 0 44 9 9 11 121 13 620 12 l608 -1 3 -26z m2301 23 c11 0 -47 -53 -73 -67 -16 -8 -46 -31 -67 -51 -22 -19 -54 -46 -73 -59 -19 -12 -48 -35 -63 -49 -15 -15 -50 -43 -78 -64 -27 -20 -61 -49 -75 -63 -14 -15 -29 -27 -34 -27 -8 0 -75 -50 -107 -80 -16 -16 -33 -29 -114 -95 -27 -22 -57 -46 -65 -53 -43 -37 -105 -84 -124 -94 -12 -6 -24 -16 -28 -23 -4 -7 -33 -32 -65 -56 -32 -23 -71 -56 -86 -72 -19 -20 -32 -26 -38 -20 -12 12 -45 128 -62 217 l-11 58 41 37 c91 80 142 121 150 121 4 0 28 18 52 40 24 21 58 49 77 62 19 13 34 28 34 35 0 17 -52 25 -84 13 -18 -6 -49 -7 -84 -2 -32 5 -279 8 -549 7 l-493 -1 0 27 c0 15 4 30 9 33 5 3 11 23 14 43 8 59 38 156 52 173 12 13 131 15 977 13 530 -1 965 -3 967 -3z m-2389 -339 c0 -9 -6 -25 -14 -36 -7 -11 -21 -55 -31 -97 -9 -43 -20 -78 -24 -78 -11 0 -57 33 -141 103 -45 37 -87 67 -94 67 -13 0 -46 35 -46 50 0 9 309 20 338 11 6 -2 12 -11 12 -20z m777 6 c7 -7 24 -52 38 -102 14 -49 32 -102 40 -117 8 -14 15 -37 15 -50 0 -13 6 -32 14 -43 7 -11 16 -38 19 -60 2 -22 8 -50 12 -61 6 -19 -7 -33 -94 -98 -55 -42 -109 -85 -118 -95 -29 -29 -129 -101 -141 -101 -11 0 -46 26 -81 61 -9 9 -56 46 -105 83 -48 37 -93 71 -100 77 -6 5 -21 17 -34 27 -28 21 -29 43 -7 102 17 45 50 164 64 230 4 19 13 45 19 57 7 12 12 30 12 41 0 11 8 30 19 43 l18 24 199 -3 c137 -2 203 -7 211 -15z m310 8 c12 -9 23 -30 26 -52 9 -63 31 -141 45 -155 6 -6 12 -26 12 -42 1 -17 7 -42 15 -56 8 -14 15 -41 15 -60 0 -19 7 -44 15 -54 8 -11 15 -32 15 -46 0 -14 5 -31 12 -38 7 -7 15 -36 19 -64 4 -29 17 -78 29 -108 22 -54 28 -77 50 -175 6 -27 15 -59 20 -70 5 -11 12 -36 16 -55 3 -19 13 -44 20 -55 8 -11 14 -31 14 -45 1 -14 7 -36 15 -50 8 -14 14 -36 15 -50 0 -14 6 -45 14 -70 8 -25 23 -72 32 -105 10 -33 21 -64 25 -70 4 -5 12 -36 18 -68 6 -32 14 -63 18 -70 4 -6 10 -29 14 -52 6 -37 20 -80 40 -130 23 -56 42 -114 46 -145 3 -19 12 -44 19 -55 15 -21 19 -71 6 -79 -4 -2 -34 20 -66 50 -33 30 -64 54 -70 54 -6 0 -38 25 -71 55 -33 30 -78 67 -100 82 -22 15 -49 37 -60 48 -32 31 -103 85 -112 85 -5 0 -16 8 -24 18 -21 23 -70 65 -90 77 -10 6 -35 27 -58 48 -22 20 -43 37 -47 37 -3 0 -25 18 -48 40 -23 22 -62 53 -86 68 -25 16 -54 38 -65 48 -11 11 -40 35 -65 54 -25 19 -47 39 -49 43 -2 5 -14 12 -27 17 -28 11 -32 47 -6 57 9 4 55 38 101 75 46 37 87 68 91 68 4 0 14 -7 21 -17 8 -9 36 -33 64 -54 27 -21 75 -59 105 -83 30 -25 60 -45 67 -46 6 0 31 -20 55 -45 24 -24 49 -45 56 -45 17 0 15 52 -3 76 -8 10 -15 30 -15 44 0 14 -7 36 -15 50 -8 14 -14 36 -15 49 0 24 -23 102 -47 158 -7 17 -13 38 -13 46 0 8 -7 31 -15 50 -8 20 -15 53 -15 74 0 21 -7 47 -15 57 -8 11 -15 36 -15 56 0 20 -4 40 -9 46 -5 5 -14 25 -19 44 -6 19 -22 66 -36 103 -14 37 -26 79 -26 94 0 28 -26 114 -46 155 -8 14 -14 35 -14 46 0 11 -9 41 -21 66 -31 71 -27 75 98 79 59 1 110 4 113 5 3 1 15 -5 27 -13z m390 -5 c1 -8 -16 -28 -38 -45 -22 -16 -65 -51 -97 -77 -31 -26 -61 -48 -66 -48 -4 0 -17 -11 -28 -25 -11 -14 -23 -25 -28 -25 -14 0 -50 70 -50 99 0 16 -7 42 -15 57 -14 28 -20 66 -11 75 3 2 78 4 168 4 137 0 163 -2 165 -15z m-1297 -871 c25 -22 57 -47 73 -55 15 -8 27 -21 27 -28 0 -15 -12 -26 -180 -164 -36 -30 -66 -58 -68 -63 -5 -12 -29 -11 -37 1 -4 6 2 27 12 48 11 20 27 64 37 97 10 33 25 78 32 100 8 23 14 52 14 66 0 53 30 52 90 -2z m849 32 c7 -5 17 -26 21 -47 17 -78 33 -129 46 -145 8 -8 14 -28 14 -43 0 -15 7 -40 16 -56 10 -15 14 -35 11 -44 -6 -15 -13 -12 -53 18 -25 19 -67 54 -94 78 -27 24 -70 58 -95 76 -25 18 -45 36 -45 40 0 4 26 25 56 47 31 22 66 50 78 62 24 25 26 26 45 14z"/> <path d="M3920 10231 c0 -11 -11 -31 -24 -45 -20 -22 -32 -26 -82 -26 -33 0 -66 -5 -74 -10 -15 -10 -5 -11 95 -15 41 -1 97 30 117 65 16 28 16 30 -2 40 -26 14 -30 13 -30 -9z"/> <path d="M8967 10234 c-12 -12 22 -62 56 -83 41 -25 57 -27 57 -6 0 8 -4 15 -9 15 -5 0 -27 18 -49 40 -42 42 -45 44 -55 34z"/> <path d="M9111 10156 c-17 -20 2 -29 41 -21 30 7 31 8 13 21 -24 18 -40 18 -54 0z"/> <path d="M3582 10118 c-6 -6 -12 -17 -12 -23 0 -13 -58 -65 -72 -65 -14 0 -45 -38 -69 -85 -12 -22 -29 -49 -38 -60 -21 -24 -44 -101 -35 -116 7 -12 44 18 44 36 0 7 14 31 30 54 17 23 40 62 53 87 17 37 25 44 42 40 16 -4 36 9 80 54 33 33 66 60 73 60 8 0 12 6 10 13 -6 16 -90 21 -106 5z"/> <path d="M4622 10123 c-31 -3 -46 -10 -58 -28 -9 -14 -32 -34 -50 -46 -28 -17 -32 -24 -23 -35 6 -8 28 -14 49 -14 35 0 38 -2 44 -37 3 -21 6 -51 6 -68 l0 -30 40 41 c46 47 65 88 75 158 8 48 -2 69 -30 64 -5 -1 -29 -3 -53 -5z m38 -83 c9 -16 6 -26 -12 -51 -22 -29 -23 -29 -32 -10 -5 12 -15 21 -23 21 -13 0 -19 41 -6 53 15 15 63 7 73 -13z"/> <path d="M4620 10025 c0 -8 5 -15 10 -15 6 0 10 7 10 15 0 8 -4 15 -10 15 -5 0 -10 -7 -10 -15z"/> <path d="M9251 10121 c-11 -7 0 -22 49 -68 35 -32 77 -62 94 -68 19 -6 36 -22 45 -40 8 -16 19 -35 25 -41 6 -6 20 -32 31 -57 17 -40 50 -75 61 -65 7 7 -26 102 -51 144 -13 23 -39 54 -57 68 -18 15 -37 30 -43 35 -21 18 -46 53 -55 77 -8 20 -16 24 -47 24 -21 0 -44 -4 -52 -9z"/> <path d="M9590 10101 c0 -11 5 -23 10 -26 6 -4 10 5 10 19 0 14 -4 26 -10 26 -5 0 -10 -9 -10 -19z"/> <path d="M8759 10040 c-6 -16 -15 -30 -20 -30 -19 0 -31 -41 -20 -73 9 -25 9 -33 -4 -39 -17 -10 -20 -54 -5 -63 6 -4 26 9 44 29 18 20 38 36 44 36 18 0 15 10 -9 29 -18 15 -20 21 -10 39 15 29 36 28 67 -3 26 -26 44 -32 44 -14 0 17 -91 119 -107 119 -8 0 -19 -13 -24 -30z"/> <path d="M4083 10020 c-29 -34 -33 -46 -33 -99 0 -55 2 -61 21 -61 18 0 20 4 14 29 -3 17 -2 32 4 36 6 3 11 17 11 30 0 13 4 26 9 29 13 8 32 -19 25 -37 -3 -8 -1 -18 5 -22 7 -3 11 2 11 14 0 12 6 21 14 21 23 0 28 -31 9 -52 -14 -16 -15 -22 -5 -36 7 -9 17 -27 22 -40 11 -25 48 -27 41 -1 -2 8 -5 43 -6 79 -1 36 -3 68 -4 73 -2 16 -74 77 -89 77 -10 0 -32 -18 -49 -40z"/> <path d="M9630 10033 c0 -5 9 -18 20 -28 11 -10 20 -14 20 -8 0 5 -9 18 -20 28 -11 10 -20 14 -20 8z"/> <path d="M9680 9953 c0 -16 9 -36 20 -46 11 -9 20 -26 20 -37 0 -11 5 -20 10 -20 15 0 12 33 -5 56 -8 10 -15 26 -15 35 0 9 -7 22 -15 29 -13 11 -15 8 -15 -17z"/> <path d="M3202 9936 c-15 -34 -12 -49 6 -37 8 5 12 20 10 37 l-4 29 -12 -29z"/> <path d="M8847 9924 c-11 -11 -8 -44 3 -44 15 0 24 30 13 41 -5 5 -12 6 -16 3z"/> <path d="M9195 9890 c-8 -13 3 -30 20 -30 20 0 30 21 14 31 -18 11 -26 11 -34 -1z"/> <path d="M3917 9862 c-10 -10 -17 -30 -17 -44 0 -40 -25 -55 -63 -39 -48 19 -62 18 -65 -5 -2 -16 6 -28 30 -42 18 -11 46 -34 62 -51 26 -27 37 -31 80 -31 28 0 65 -4 83 -9 21 -6 35 -5 42 2 18 18 13 25 -29 53 -45 30 -48 43 -20 82 26 35 18 58 -22 66 -18 3 -39 13 -48 21 -15 14 -19 13 -33 -3z"/> <path d="M8960 9856 c-6 -8 -24 -16 -38 -18 -23 -3 -27 -7 -25 -32 1 -17 9 -34 18 -38 29 -17 17 -46 -30 -74 -67 -39 -54 -50 55 -45 91 3 94 4 129 38 20 19 48 41 64 49 16 9 27 23 27 36 0 18 -4 20 -32 14 -94 -20 -97 -20 -103 7 -4 14 -4 31 0 37 9 15 -13 40 -35 40 -10 0 -23 -6 -30 -14z"/> <path d="M4378 9834 c-5 -4 -8 -45 -8 -90 l0 -83 43 -50 c23 -27 48 -52 55 -55 7 -3 34 15 60 41 l47 47 4 83 c1 46 0 91 -3 100 -6 14 -10 13 -31 -7 -14 -13 -25 -29 -25 -36 0 -6 -11 -19 -24 -27 -23 -16 -25 -15 -68 34 -23 28 -46 47 -50 43z"/> <path d="M8353 9763 c4 -38 7 -82 7 -99 0 -23 11 -42 42 -72 23 -23 46 -42 52 -42 13 0 76 71 84 95 11 33 8 178 -4 182 -6 2 -23 -15 -39 -37 -35 -51 -58 -51 -91 0 -42 63 -58 54 -51 -27z"/> <path d="M8136 9798 c-10 -33 -15 -78 -8 -78 5 0 20 6 35 13 26 12 33 30 21 61 -7 19 -43 21 -48 4z"/> <path d="M3465 9757 c-21 -16 -12 -37 16 -37 23 0 25 -17 3 -41 -14 -15 -13 -18 15 -27 37 -13 43 -37 7 -28 -37 9 -39 -7 -9 -53 38 -59 55 -54 52 13 -3 63 13 91 41 76 23 -12 67 -13 74 -2 3 5 -21 32 -54 60 -63 55 -106 67 -145 39z"/> <path d="M8027 9763 c-4 -3 -7 -13 -7 -21 0 -12 3 -12 15 -2 8 7 15 16 15 21 0 11 -14 12 -23 2z"/> <path d="M9364 9757 c-35 -20 -104 -83 -104 -95 0 -7 25 -10 74 -9 75 2 103 11 72 23 -20 8 -21 33 -1 40 24 10 47 -14 35 -36 -7 -13 -7 -21 1 -26 16 -10 26 6 32 54 4 34 2 44 -13 52 -25 13 -70 12 -96 -3z"/> <path d="M9800 9728 c0 -7 5 -20 10 -28 8 -12 10 -11 10 7 0 12 -4 25 -10 28 -5 3 -10 0 -10 -7z"/> <path d="M8152 9694 c1 -9 9 -19 16 -22 9 -3 13 2 10 14 -1 9 -9 19 -16 22 -9 3 -13 -2 -10 -14z"/> <path d="M3347 9653 c-4 -3 -7 -16 -7 -28 0 -23 -41 -75 -60 -75 -5 0 -10 -8 -10 -18 0 -23 35 -57 44 -44 3 6 24 13 46 17 l40 7 0 60 c0 46 -4 64 -17 74 -21 15 -27 17 -36 7z"/> <path d="M9536 9638 c-3 -7 -7 -39 -10 -70 -6 -57 -6 -58 20 -58 14 0 33 -4 43 -10 13 -6 24 -5 37 5 18 14 18 16 2 29 -10 7 -18 20 -18 28 0 9 -7 21 -15 28 -8 7 -15 23 -15 36 0 17 -6 24 -20 24 -11 0 -22 -6 -24 -12z"/> <path d="M3720 9631 c0 -5 18 -24 41 -42 36 -29 42 -30 56 -16 19 19 12 31 -29 51 -35 18 -68 21 -68 7z"/> <path d="M7743 9628 c-17 -23 0 -123 27 -158 33 -44 50 -60 60 -60 16 0 32 41 24 58 -9 21 -14 82 -8 101 4 11 8 10 24 -4 11 -10 20 -24 20 -31 0 -16 69 -39 81 -27 16 16 1 38 -46 68 -25 15 -45 32 -45 36 0 10 -66 29 -101 29 -15 0 -31 -6 -36 -12z m87 -72 c0 -18 -15 -36 -30 -36 -22 0 -34 15 -25 30 6 9 55 15 55 6z"/> <path d="M9120 9624 c-19 -8 -43 -24 -53 -34 -11 -13 -31 -20 -55 -20 -24 0 -47 -8 -67 -24 -45 -36 -25 -47 72 -39 79 6 82 7 132 53 28 26 51 54 51 63 0 21 -33 22 -80 1z"/> <path d="M9407 9617 c-20 -14 -36 -87 -19 -87 6 0 22 14 36 31 42 49 29 90 -17 56z"/> <path d="M3903 9553 c2 -28 12 -33 81 -45 35 -6 28 21 -13 46 -53 34 -70 33 -68 -1z"/> <path d="M3694 9487 c-3 -9 -1 -32 6 -52 7 -20 9 -42 6 -50 -3 -8 8 -28 24 -44 22 -25 36 -31 69 -31 34 0 48 7 81 38 22 20 40 45 40 54 0 9 -25 33 -56 54 -65 43 -158 60 -170 31z m116 -72 c-7 -8 -16 -15 -21 -15 -5 0 -9 7 -9 15 0 9 9 15 21 15 18 0 19 -2 9 -15z"/> <path d="M4050 9493 c0 -5 14 -20 31 -33 17 -14 40 -34 51 -44 l21 -19 -29 -24 c-16 -12 -34 -23 -40 -23 -18 0 -26 -31 -13 -46 9 -11 16 -11 43 3 30 17 57 23 103 23 11 0 24 7 27 15 3 8 11 15 18 15 7 0 24 9 37 19 24 18 24 20 8 45 -10 14 -24 26 -31 26 -7 0 -20 9 -27 21 -12 17 -27 21 -106 25 -51 3 -93 1 -93 -3z m180 -93 c0 -30 -23 -56 -40 -45 -9 5 -7 32 5 72 7 23 35 1 35 -27z"/> <path d="M8659 9458 c-26 -20 -50 -42 -54 -48 -4 -6 14 -32 39 -57 l45 -47 85 -3 c47 -2 87 1 91 7 6 9 -2 18 -60 65 l-30 25 49 43 c32 28 45 46 38 51 -6 4 -44 6 -84 4 -66 -3 -76 -6 -119 -40z"/> <path d="M9296 9424 l-65 -69 6 -85 c4 -54 12 -94 23 -110 9 -14 29 -44 44 -67 26 -39 60 -60 71 -43 3 5 0 28 -7 53 -15 56 -6 82 25 73 84 -25 138 -10 86 23 -40 26 -70 60 -64 71 4 6 24 22 46 36 21 13 39 31 39 40 0 13 -10 15 -64 9 -35 -4 -66 -3 -69 2 -3 4 -1 30 4 57 16 86 0 89 -75 10z m65 -117 c14 -28 14 -36 1 -69 -12 -30 -20 -38 -40 -38 -23 0 -24 3 -17 38 3 20 6 52 6 70 0 43 28 43 50 -1z"/> <path d="M9900 9465 c0 -15 4 -24 10 -20 6 3 10 12 10 20 0 8 -4 17 -10 20 -6 4 -10 -5 -10 -20z"/> <path d="M3560 9433 c4 -88 5 -86 -42 -80 -24 3 -53 9 -65 13 -17 5 -23 2 -23 -9 0 -19 49 -67 67 -67 7 0 13 -11 13 -25 0 -18 -10 -30 -40 -47 -24 -14 -40 -30 -40 -42 0 -16 5 -17 43 -12 88 14 82 19 83 -57 1 -38 5 -71 9 -75 6 -7 20 8 90 93 17 20 31 37 32 39 2 1 -2 42 -8 90 -8 66 -8 90 1 101 10 12 9 15 -3 15 -9 0 -33 25 -54 55 -48 69 -66 71 -63 8z m57 -180 c-7 -73 -37 -67 -51 10 -7 36 -6 37 24 37 30 0 31 0 27 -47z"/> <path d="M3278 9417 c-50 -41 -33 -57 58 -57 65 0 70 15 20 54 -42 31 -44 31 -78 3z"/> <path d="M9567 9409 c-20 -17 -37 -35 -37 -40 0 -6 36 -9 83 -8 90 2 107 -2 107 -30 0 -10 7 -32 16 -50 11 -22 14 -45 10 -71 -5 -31 -2 -41 11 -48 23 -13 52 -105 52 -168 1 -48 -2 -55 -41 -94 -24 -24 -42 -48 -40 -54 2 -6 -2 -39 -9 -74 -15 -80 -3 -98 36 -56 14 16 32 42 41 58 15 26 14 29 -5 47 -31 29 -25 79 10 79 24 0 33 34 33 130 0 61 -4 82 -23 113 -17 28 -22 46 -17 69 10 52 -10 101 -60 146 -25 23 -51 42 -57 42 -7 0 -23 9 -37 20 -14 11 -27 20 -30 20 -3 0 -22 -14 -43 -31z"/> <path d="M9930 9376 c0 -7 7 -27 15 -42 8 -16 15 -44 15 -62 0 -20 4 -31 10 -27 15 9 12 56 -5 89 -8 15 -15 35 -15 42 0 8 -4 14 -10 14 -5 0 -10 -6 -10 -14z"/> <path d="M2964 9369 c-3 -6 -1 -16 5 -22 8 -8 11 -5 11 11 0 24 -5 28 -16 11z"/> <path d="M5070 9365 c-7 -8 -10 -25 -7 -37 9 -35 -8 -47 -51 -37 -38 9 -75 3 -70 -11 2 -4 31 -31 64 -59 60 -49 64 -51 123 -51 l62 0 -4 53 c-6 86 -28 115 -42 55 -6 -32 -7 -32 -16 -10 -5 13 -6 34 -3 47 13 52 -25 87 -56 50z"/> <path d="M3172 9348 c-7 -7 -12 -22 -12 -35 0 -13 -9 -32 -20 -43 -22 -22 -25 -42 -10 -70 6 -11 6 -21 1 -24 -16 -10 -53 -95 -46 -106 4 -6 0 -22 -9 -35 -20 -31 -20 -64 -1 -72 23 -8 28 2 27 51 0 27 5 50 14 57 8 6 14 23 14 38 0 32 8 44 38 60 20 11 21 15 10 28 -15 19 -12 49 8 77 15 22 19 86 6 86 -4 0 -13 -5 -20 -12z"/> <path d="M8906 9301 c-11 -17 3 -35 42 -56 54 -29 53 -54 -3 -89 -53 -34 -58 -64 -10 -57 17 3 48 5 70 5 36 1 40 -1 39 -24 -1 -14 -5 -40 -9 -57 -7 -29 -5 -33 13 -33 13 0 29 13 42 35 29 46 52 45 87 -7 15 -23 33 -41 38 -40 6 2 9 34 8 78 -3 80 -10 98 -74 174 -12 14 -28 35 -36 47 -13 20 -23 23 -77 21 -33 -1 -75 1 -93 5 -18 5 -34 4 -37 -2z m225 -131 c39 -38 46 -71 11 -51 -10 5 -22 5 -32 -2 -13 -7 -24 -4 -48 13 -38 28 -40 43 -10 64 31 22 33 21 79 -24z"/> <path d="M2936 9274 c-4 -15 -2 -32 3 -37 8 -8 11 0 11 26 0 44 -5 47 -14 11z"/> <path d="M4285 9291 c-41 -6 -135 -66 -135 -86 0 -7 9 -20 20 -30 11 -10 20 -29 20 -42 0 -16 6 -23 18 -23 11 0 27 -9 37 -20 28 -31 48 -24 87 28 30 40 36 58 38 103 4 88 9 84 -85 70z m-5 -76 c0 -17 -17 -28 -30 -20 -7 4 -7 13 0 26 12 21 30 17 30 -6z"/> <path d="M8401 9205 l-41 -45 0 -91 c0 -100 11 -112 43 -46 25 49 63 51 92 4 11 -18 25 -32 30 -32 6 0 11 36 13 81 3 79 2 82 -30 119 -53 60 -60 61 -107 10z"/> <path d="M9990 9180 c0 -18 4 -29 10 -25 6 3 10 15 10 25 0 10 -4 22 -10 25 -6 4 -10 -7 -10 -25z"/> <path d="M2912 9160 c0 -19 2 -27 5 -17 2 9 2 25 0 35 -3 9 -5 1 -5 -18z"/> <path d="M3235 9162 c-10 -10 -5 -20 27 -51 17 -17 41 -31 53 -31 20 0 94 65 84 74 -7 6 -158 13 -164 8z"/> <path d="M9596 9161 c-33 -3 -61 -11 -63 -17 -5 -15 61 -64 85 -64 11 0 35 17 52 37 30 34 31 37 14 44 -11 4 -21 7 -24 7 -3 -1 -32 -4 -64 -7z"/> <path d="M4045 9100 c-5 -9 9 -29 41 -61 27 -26 55 -55 62 -64 15 -17 38 -15 36 3 -1 7 -2 29 -2 50 -1 21 -8 46 -14 55 -17 22 -112 35 -123 17z"/> <path d="M10015 9098 c-10 -24 -2 -71 13 -76 14 -4 17 55 2 78 -8 12 -10 12 -15 -2z"/> <path d="M2880 9058 c0 -19 2 -20 10 -8 13 19 13 30 0 30 -5 0 -10 -10 -10 -22z"/> <path d="M3291 9028 c-6 -16 -16 -22 -42 -22 -30 -1 -34 -4 -37 -30 -2 -16 -1 -44 2 -61 8 -42 71 -125 95 -125 10 0 37 20 60 45 38 42 41 48 41 103 l0 59 -51 27 c-28 14 -53 26 -55 26 -3 0 -8 -10 -13 -22z"/> <path d="M9590 9030 c0 -5 -11 -10 -24 -10 -13 0 -28 -6 -35 -13 -13 -17 -3 -118 14 -132 6 -5 19 -24 28 -42 9 -17 21 -34 27 -38 16 -10 49 14 66 48 9 18 20 34 25 37 4 3 9 35 11 70 3 65 3 65 -23 62 -15 -1 -32 4 -39 13 -14 17 -50 21 -50 5z m70 -86 c15 -37 13 -41 -22 -58 -40 -21 -45 -20 -58 4 -9 16 -7 27 10 50 26 37 57 39 70 4z"/> <path d="M9375 8990 c-3 -6 -3 -47 1 -93 l7 -84 59 -62 c32 -33 64 -61 70 -61 7 0 8 15 3 48 -4 26 -10 67 -14 92 -5 32 -20 62 -51 102 -47 59 -66 73 -75 58z"/> <path d="M10047 8948 c-4 -15 -3 -37 1 -49 l9 -23 6 26 c4 15 3 37 -1 49 l-9 23 -6 -26z"/> <path d="M3894 8888 c4 -35 9 -64 10 -65 1 -1 28 -5 59 -9 50 -6 57 -5 57 10 0 21 -99 126 -119 126 -11 0 -12 -13 -7 -62z"/> <path d="M4940 8935 c-7 -8 -9 -22 -6 -31 11 -28 86 0 86 32 0 19 -64 18 -80 -1z"/> <path d="M8545 8941 c-3 -6 0 -41 6 -80 9 -56 9 -74 -1 -86 -18 -22 -23 -20 -59 30 -35 49 -44 53 -63 29 -7 -8 -25 -27 -40 -41 -26 -24 -28 -33 -28 -101 l0 -74 71 4 c87 5 112 26 107 92 -3 38 -1 41 24 44 23 3 30 -2 41 -30 8 -18 32 -49 53 -68 39 -35 41 -36 124 -35 98 0 110 14 48 54 -43 28 -49 57 -15 71 39 17 60 38 53 56 -5 13 -13 15 -39 8 -17 -4 -51 -7 -74 -6 -47 1 -51 -4 -28 -34 20 -26 19 -50 -2 -59 -12 -4 -23 1 -32 14 -7 12 -20 21 -27 21 -16 0 -18 19 -4 55 8 20 14 24 33 20 28 -7 40 5 57 59 10 32 10 40 -3 53 -14 14 -19 10 -52 -36 -20 -28 -41 -51 -45 -51 -4 0 -24 23 -44 50 -36 50 -49 59 -61 41z"/> <path d="M3046 8918 c-3 -13 -6 -38 -6 -56 0 -18 -7 -44 -16 -58 -14 -21 -15 -31 -5 -67 7 -24 12 -47 11 -52 -2 -6 -2 -19 -1 -30 3 -33 18 3 24 55 3 25 10 65 17 90 13 54 10 132 -6 137 -6 2 -14 -6 -18 -19z"/> <path d="M3613 8880 l-53 -58 0 -91 c0 -50 3 -91 8 -91 8 0 54 56 71 88 8 15 21 22 41 22 38 0 40 -6 27 -63 -7 -30 -7 -51 -1 -57 6 -6 35 -7 74 -2 51 6 71 14 92 35 15 15 32 27 38 27 15 0 12 50 -4 56 -8 3 -19 19 -25 35 -6 18 -17 29 -28 29 -10 0 -26 9 -36 20 -21 25 -36 25 -44 3 -9 -23 -52 -63 -68 -63 -29 0 -34 25 -19 89 23 101 4 107 -73 21z m210 -165 c-3 -8 -9 -15 -14 -15 -10 0 -12 24 -3 33 11 11 24 -3 17 -18z"/> <path d="M8946 8880 l-60 -59 28 -7 c15 -3 46 -3 69 2 39 9 42 11 49 54 15 88 -4 91 -86 10z"/> <path d="M9110 8834 c-8 -13 -24 -27 -37 -30 -14 -4 -23 -14 -23 -25 0 -10 -8 -24 -18 -31 -10 -7 -21 -18 -25 -25 -11 -18 82 -79 133 -87 90 -15 85 -18 88 52 3 61 2 64 -38 110 -55 62 -64 66 -80 36z m24 -122 c2 -4 0 -14 -5 -22 -8 -13 -10 -13 -18 0 -10 15 -6 30 9 30 5 0 11 -4 14 -8z"/> <path d="M10083 8765 c0 -22 2 -30 4 -17 2 12 2 30 0 40 -3 9 -5 -1 -4 -23z"/> <path d="M9870 8716 c0 -51 14 -66 38 -42 11 10 12 16 4 16 -7 0 -12 9 -12 19 0 26 -10 51 -21 51 -5 0 -9 -20 -9 -44z"/> <path d="M3205 8668 c-4 -10 0 -46 9 -81 9 -35 16 -73 16 -84 0 -24 66 -103 86 -103 7 0 19 10 25 23 6 12 20 30 29 39 10 9 23 45 29 81 22 125 9 149 -42 77 -16 -22 -34 -40 -40 -40 -7 0 -33 23 -59 52 -38 43 -48 50 -53 36z"/> <path d="M9514 8608 c3 -29 6 -70 6 -91 0 -31 8 -47 43 -83 49 -53 58 -52 106 14 30 41 34 54 39 129 6 98 -5 106 -53 41 -16 -23 -35 -43 -42 -45 -6 -2 -23 16 -38 41 -18 31 -34 46 -47 46 -19 0 -20 -4 -14 -52z"/> <path d="M4326 8623 l-79 -4 -71 -61 c-39 -33 -72 -65 -74 -69 -4 -10 138 -12 162 -3 9 3 16 17 16 29 0 18 7 25 30 30 44 10 90 -3 90 -24 0 -26 -10 -31 -32 -18 -16 9 -22 9 -25 0 -3 -7 -17 -13 -31 -13 -31 0 -66 -45 -77 -97 -6 -29 -4 -33 14 -33 13 0 29 15 47 45 14 25 30 45 35 45 5 0 19 -17 33 -38 32 -51 54 -68 68 -54 8 8 8 23 -1 56 -17 70 -19 68 66 64 86 -3 105 10 52 37 -17 9 -53 39 -80 66 -26 27 -52 48 -56 47 -4 -1 -44 -4 -87 -5z"/> <path d="M8916 8621 c-11 -17 5 -39 62 -89 l57 -49 87 -5 c108 -7 130 7 71 43 -21 12 -54 35 -74 51 -20 15 -49 28 -64 28 -14 0 -34 4 -43 9 -28 14 -90 22 -96 12z"/> <path d="M3502 8568 c-17 -24 -43 -56 -59 -73 -15 -16 -26 -34 -24 -40 2 -5 4 -32 5 -59 l1 -50 64 -2 64 -3 68 61 c37 34 66 65 63 70 -3 5 -34 8 -68 6 l-61 -3 3 68 c5 82 -9 88 -56 25z"/> <path d="M3074 8553 c4 -21 9 -46 12 -55 3 -10 -3 -21 -16 -28 -21 -11 -28 -62 -12 -87 9 -14 120 -45 133 -37 5 3 9 30 9 61 0 51 -4 60 -51 119 -59 75 -85 84 -75 27z"/> <path d="M9802 8552 c-76 -79 -82 -89 -82 -148 l0 -56 68 7 c37 4 70 9 75 12 12 7 -4 87 -21 100 -13 11 -13 19 -4 51 21 71 9 82 -36 34z"/> <path d="M3836 8423 c-91 -80 -89 -103 8 -78 31 8 66 15 78 15 27 0 160 89 155 104 -2 7 -36 12 -89 14 l-86 3 -66 -58z"/> <path d="M9194 8336 c-8 -20 10 -42 48 -62 19 -10 28 -22 28 -39 0 -14 -4 -25 -9 -25 -5 0 -27 -16 -48 -36 -32 -31 -35 -37 -21 -45 10 -6 27 -5 45 2 15 6 52 11 80 12 29 1 53 5 53 10 0 4 20 22 45 39 25 18 45 37 45 43 0 6 -20 30 -44 54 -40 39 -49 44 -98 46 -29 1 -68 5 -86 9 -25 6 -33 4 -38 -8z"/> <path d="M8250 8333 c-37 -3 -53 -12 -87 -46 -24 -22 -43 -47 -43 -53 0 -7 23 -33 51 -58 42 -38 59 -46 93 -48 81 -3 101 7 92 45 -3 10 4 27 15 38 17 17 17 49 -1 49 -4 0 -10 18 -14 40 -7 44 0 42 -106 33z"/> <path d="M8850 8332 c-6 -2 -10 -16 -10 -32 0 -15 -7 -33 -15 -40 -8 -7 -15 -19 -15 -27 0 -7 7 -16 15 -19 9 -4 15 -19 15 -39 0 -36 14 -47 45 -34 11 4 35 8 53 8 21 1 32 6 32 16 0 8 8 15 18 15 9 1 30 11 46 24 32 26 30 31 -20 89 -29 32 -37 35 -93 39 -34 1 -66 2 -71 0z m96 -128 c-3 -8 -16 -14 -28 -14 -23 1 -23 1 -3 16 11 8 20 20 21 27 2 27 7 31 11 9 3 -13 2 -30 -1 -38z"/> <path d="M3990 8323 c-19 -2 -46 -15 -60 -27 -14 -13 -35 -29 -47 -35 -13 -6 -23 -17 -23 -24 0 -21 109 -87 144 -87 18 0 37 -5 44 -12 17 -17 42 8 42 44 0 21 6 31 20 35 25 7 26 29 1 43 -11 5 -21 22 -23 37 -3 30 -23 35 -98 26z m20 -47 c0 -17 -7 -26 -26 -30 -35 -9 -39 -3 -19 28 22 33 45 34 45 2z m50 -47 c0 -5 -4 -9 -10 -9 -5 0 -18 -10 -29 -21 -12 -13 -26 -19 -36 -15 -14 5 -12 10 12 34 26 27 63 33 63 11z"/> <path d="M8694 8318 c-8 -13 -6 -156 2 -170 5 -8 42 26 72 64 11 14 10 21 -4 45 -32 50 -61 76 -70 61z"/> <path d="M9537 8324 c-4 -4 -7 -18 -7 -30 0 -13 -4 -26 -10 -29 -20 -12 -9 -26 18 -23 24 3 27 7 27 42 0 37 -13 55 -28 40z"/> <path d="M3057 8313 c-10 -15 -11 -138 -3 -152 8 -12 11 -12 20 0 6 8 26 25 44 38 17 12 32 28 32 35 0 21 -85 92 -93 79z"/> <path d="M4178 8286 c-16 -19 -28 -39 -28 -45 0 -5 12 -28 27 -51 19 -29 33 -40 48 -38 15 2 19 9 17 28 -1 14 -2 51 -2 83 0 47 -3 57 -18 57 -9 0 -29 -16 -44 -34z"/> <path d="M9819 8283 c-35 -28 -49 -44 -49 -54 0 -3 20 -20 44 -37 52 -38 58 -33 60 44 1 72 -12 83 -55 47z"/> <path d="M9680 8285 c0 -8 5 -15 10 -15 6 0 10 7 10 15 0 8 -4 15 -10 15 -5 0 -10 -7 -10 -15z"/> <path d="M3375 8249 c-4 -5 -4 -21 -1 -35 6 -24 7 -24 34 -7 15 9 29 19 32 21 7 5 -31 32 -46 32 -7 0 -16 -5 -19 -11z"/> <path d="M3260 8185 c0 -8 5 -15 10 -15 6 0 10 7 10 15 0 8 -4 15 -10 15 -5 0 -10 -7 -10 -15z"/> <path d="M9540 8180 c0 -11 7 -20 15 -20 17 0 18 2 9 24 -9 23 -24 20 -24 -4z"/> <path d="M3335 8170 c-3 -5 3 -10 14 -10 11 0 23 5 26 10 3 6 -3 10 -14 10 -11 0 -23 -4 -26 -10z"/> <path d="M3777 8126 c-5 -12 12 -30 59 -64 57 -41 76 -48 142 -58 50 -7 81 -8 89 -1 17 13 12 19 -55 65 -43 29 -76 43 -123 51 -35 5 -74 13 -85 16 -14 5 -23 1 -27 -9z"/> <path d="M8959 8111 c-9 -15 -37 -41 -62 -57 -26 -16 -46 -37 -47 -46 0 -15 10 -16 93 -11 l92 6 52 46 c80 71 69 95 -33 70 -37 -10 -47 -9 -62 4 -16 15 -19 14 -33 -12z"/> <path d="M3431 8120 c-15 -9 -11 -117 4 -130 8 -6 35 -40 61 -75 26 -36 51 -62 56 -59 5 4 8 36 6 73 l-3 66 60 3 c33 2 64 7 68 11 4 4 -10 20 -33 36 -22 15 -40 30 -40 34 0 3 -15 16 -33 28 -24 16 -45 22 -84 21 -29 -1 -57 -4 -62 -8z"/> <path d="M3090 8111 c-18 -5 -27 -17 -33 -45 -8 -32 -6 -40 12 -58 18 -16 21 -26 15 -51 -21 -90 -4 -93 65 -11 48 58 51 65 51 118 l0 56 -42 -1 c-24 -1 -54 -4 -68 -8z"/> <path d="M9362 8105 c-4 -6 -31 -26 -59 -45 -71 -47 -69 -60 10 -60 35 0 66 -2 69 -5 3 -3 1 -28 -4 -57 -12 -65 1 -82 37 -48 14 13 25 29 25 36 0 7 13 23 28 36 25 20 30 34 36 92 l7 67 -71 -3 c-40 -2 -75 -8 -78 -13z"/> <path d="M9720 8066 c0 -42 5 -58 24 -79 14 -15 37 -42 52 -62 28 -37 73 -50 59 -17 -29 69 -29 71 -12 90 11 12 17 36 17 69 l0 51 -70 1 -70 1 0 -54z"/> <path d="M3268 8038 c-19 -24 -38 -59 -41 -78 -4 -19 -11 -57 -17 -84 -6 -28 -7 -59 -4 -69 6 -18 8 -17 31 9 14 16 32 39 40 52 23 33 49 27 79 -18 45 -67 58 -55 49 47 -7 83 -9 89 -48 135 -22 26 -43 48 -47 48 -4 0 -23 -19 -42 -42z"/> <path d="M9583 8044 c-10 -14 -25 -34 -34 -43 -14 -16 -30 -91 -33 -161 -2 -42 29 -36 55 9 13 23 30 41 40 41 17 0 69 -53 69 -71 0 -13 28 -11 32 3 2 6 0 39 -4 72 -5 33 -6 66 -3 74 5 14 -73 102 -92 102 -7 0 -20 -12 -30 -26z"/> <path d="M3710 7988 c0 -13 25 -39 103 -107 24 -21 40 -24 118 -28 113 -4 116 7 16 81 -70 52 -76 54 -155 61 -68 6 -82 5 -82 -7z"/> <path d="M8759 7853 l-65 -4 -71 -72 -71 -72 -6 -92 c-4 -53 -3 -94 3 -97 9 -6 51 37 82 84 l17 25 43 -47 c23 -27 47 -48 52 -48 6 0 7 20 4 49 -9 73 -1 94 34 87 91 -19 89 -19 89 -1 0 18 -38 54 -58 55 -29 0 -19 70 10 70 19 0 57 41 51 56 -3 8 -15 13 -27 12 -11 -1 -51 -3 -87 -5z m-19 -166 c0 -4 -12 -12 -26 -17 -43 -17 -42 -17 -65 45 -2 5 10 12 26 16 23 4 34 0 47 -15 10 -12 18 -24 18 -29z"/> <path d="M4410 7823 c-16 -16 -33 -42 -36 -58 -5 -26 2 -40 41 -88 26 -31 51 -57 56 -57 5 0 30 22 56 49 47 48 48 51 50 115 l1 66 -69 0 c-61 0 -72 -3 -99 -27z"/> <path d="M9047 7808 c-26 -24 -47 -48 -47 -54 0 -7 11 -19 25 -28 14 -9 25 -25 25 -36 0 -11 7 -20 15 -20 9 0 27 -12 40 -26 28 -30 41 -25 62 23 8 19 22 37 32 40 13 3 18 15 19 46 0 23 2 53 4 67 3 24 1 25 -62 28 -64 2 -66 2 -113 -40z m101 -60 c-2 -25 -8 -34 -25 -36 -27 -4 -26 -5 -12 37 15 43 41 42 37 -1z"/> <path d="M3015 7819 c-8 -25 2 -106 14 -114 11 -6 24 95 15 118 -8 23 -21 21 -29 -4z"/> <path d="M3560 7744 l0 -87 43 -52 c23 -29 47 -61 54 -71 10 -18 12 -18 28 -2 15 14 16 22 5 67 -6 27 -9 64 -5 81 6 28 1 37 -47 88 -29 31 -59 58 -65 60 -10 3 -13 -19 -13 -84z"/> <path d="M9866 7815 c-3 -9 -6 -38 -6 -63 0 -26 -7 -74 -15 -107 -8 -33 -14 -76 -15 -96 0 -20 -7 -50 -15 -65 -8 -16 -13 -41 -10 -55 4 -17 0 -30 -10 -39 -8 -7 -15 -23 -15 -36 0 -12 -10 -30 -21 -38 -17 -11 -20 -21 -15 -42 4 -16 0 -47 -10 -78 -35 -106 -25 -98 -111 -94 -64 2 -78 0 -81 -13 -2 -9 11 -23 33 -35 34 -18 37 -18 66 -1 17 9 37 17 45 17 8 0 14 5 14 10 0 6 11 16 25 22 36 16 71 93 67 145 -3 28 3 58 16 85 29 64 35 80 38 113 5 54 30 180 40 200 13 29 12 177 -2 182 -6 2 -14 -3 -18 -12z"/> <path d="M4668 7795 c-10 -13 -18 -30 -18 -38 0 -8 -7 -20 -15 -27 -9 -7 -13 -21 -10 -30 4 -12 -1 -19 -14 -23 -16 -4 -21 -17 -26 -71 -4 -37 -5 -70 -2 -73 4 -3 34 23 67 58 l60 64 -2 79 c-2 44 -7 81 -13 82 -5 2 -18 -7 -27 -21z"/> <path d="M9316 7789 c-10 -17 -31 -45 -46 -63 -25 -28 -30 -43 -36 -119 -4 -48 -3 -87 2 -87 5 0 37 30 71 67 61 65 63 68 65 125 1 32 2 68 2 81 1 36 -36 34 -58 -4z"/> <path d="M8062 7718 l3 -73 -32 0 c-18 -1 -41 -8 -50 -18 -15 -15 -15 -18 -1 -34 9 -10 18 -31 20 -48 2 -25 8 -31 33 -33 23 -3 35 3 53 25 l23 28 17 -24 c23 -31 63 -71 72 -71 4 0 10 6 13 14 8 20 -14 168 -27 188 -26 37 -106 118 -116 118 -7 0 -10 -25 -8 -72z"/> <path d="M3165 7743 c-10 -16 -27 -37 -38 -47 -19 -19 -19 -19 3 -36 18 -13 21 -23 16 -44 -5 -21 -3 -26 13 -26 28 0 37 23 45 108 6 59 5 72 -7 72 -8 0 -23 -12 -32 -27z"/> <path d="M10075 7679 c-4 -12 -2 -26 4 -32 8 -8 11 -2 11 21 0 37 -6 41 -15 11z"/> <path d="M3266 7636 c-25 -29 -36 -53 -36 -75 0 -17 -5 -40 -12 -50 -15 -24 4 -51 35 -51 11 0 29 -7 38 -16 17 -15 20 -15 43 0 14 9 37 16 51 16 24 0 25 3 25 58 0 38 -6 66 -18 84 -21 32 -69 78 -82 78 -5 0 -25 -20 -44 -44z m44 -61 c0 -16 -6 -25 -15 -25 -18 0 -18 5 -5 31 14 26 20 24 20 -6z m11 -68 c-13 -13 -26 -3 -16 12 3 6 11 8 17 5 6 -4 6 -10 -1 -17z"/> <path d="M9561 7639 c-27 -31 -35 -51 -41 -101 -4 -35 -5 -66 -3 -70 2 -5 17 -8 33 -8 16 0 32 -4 35 -10 3 -5 17 -10 30 -10 13 0 27 5 30 10 3 6 19 10 36 10 l29 0 0 70 c0 53 -4 72 -15 76 -8 3 -24 21 -36 40 -27 45 -55 43 -98 -7z"/> <path d="M3940 7661 l-45 -6 -3 -62 c-4 -77 7 -81 69 -23 24 22 47 40 51 40 15 0 8 48 -8 54 -9 3 -16 5 -17 4 -1 0 -22 -4 -47 -7z"/> <path d="M8917 7653 c-16 -16 -2 -41 49 -85 30 -27 59 -48 65 -48 8 0 9 19 5 62 -4 35 -8 63 -9 64 -9 6 -105 13 -110 7z"/> <path d="M2851 7553 c-1 -24 4 -43 9 -43 12 0 12 37 0 65 -7 15 -9 10 -9 -22z"/> <path d="M4931 7581 c-12 -8 -13 -14 -3 -35 13 -30 59 -36 69 -10 13 35 -33 66 -66 45z"/> <path d="M3106 7554 c-9 -22 3 -32 14 -14 12 19 12 30 1 30 -5 0 -12 -7 -15 -16z"/> <path d="M10046 7538 c-3 -17 -2 -36 4 -42 7 -7 10 4 10 32 0 50 -5 54 -14 10z"/> <path d="M3088 7507 c-14 -32 -9 -74 17 -154 14 -43 25 -87 24 -98 -4 -33 39 -146 61 -160 30 -19 24 38 -13 122 -5 12 -7 36 -4 53 6 26 3 32 -18 40 -21 8 -25 16 -25 54 0 26 -6 48 -14 56 -8 6 -16 33 -18 58 -2 33 -5 41 -10 29z"/> <path d="M4103 7450 c-32 -34 -59 -65 -61 -70 -5 -12 30 -17 88 -11 l55 6 2 57 c2 89 -14 92 -84 18z"/> <path d="M2870 7453 c0 -58 14 -87 25 -53 8 26 -2 87 -15 95 -6 4 -10 -14 -10 -42z"/> <path d="M8748 7440 c-1 -28 -1 -55 0 -60 2 -6 35 -10 73 -10 55 0 69 3 69 15 0 8 -4 15 -10 15 -5 0 -30 20 -56 45 -59 59 -71 58 -76 -5z"/> <path d="M10017 7443 c-4 -3 -7 -22 -7 -40 0 -42 23 -41 28 1 4 29 -9 52 -21 39z"/> <path d="M3559 7428 c0 -7 0 -42 1 -77 1 -58 0 -63 -17 -56 -29 13 -104 18 -114 8 -6 -6 8 -22 36 -42 50 -36 55 -53 24 -79 -12 -9 -35 -29 -51 -43 -29 -26 -30 -27 -9 -34 12 -4 44 -1 71 6 27 7 52 10 56 6 3 -3 7 -30 8 -59 0 -29 5 -55 11 -57 5 -2 26 20 47 49 20 29 40 56 45 59 4 3 9 31 11 61 1 30 5 74 8 97 4 36 1 45 -23 71 -15 16 -41 45 -57 65 -29 38 -45 46 -47 25z m56 -174 c-19 -14 -19 -16 -2 -45 23 -42 22 -56 -8 -61 -32 -7 -53 16 -38 40 7 12 7 22 -1 34 -8 14 -6 21 9 32 11 9 29 15 40 15 20 0 20 0 0 -15z"/> <path d="M9323 7408 c-16 -18 -43 -47 -62 -66 l-33 -35 7 -86 c5 -57 12 -89 21 -94 8 -4 14 -15 14 -24 0 -9 10 -27 21 -39 12 -13 27 -34 33 -46 14 -27 41 -35 49 -14 3 8 1 31 -4 51 -16 55 9 69 88 50 27 -6 34 -4 40 11 4 12 -1 22 -17 33 -14 9 -36 26 -50 38 l-25 23 50 44 c61 54 55 69 -23 54 -68 -14 -76 -6 -62 57 18 80 -1 97 -47 43z m35 -188 c2 -30 8 -60 13 -66 7 -8 6 -15 -2 -20 -6 -4 -16 0 -21 10 -5 9 -20 16 -34 16 -23 0 -24 2 -18 43 9 56 22 79 42 75 13 -2 18 -16 20 -58z"/> <path d="M3262 7367 c-18 -18 -32 -38 -32 -45 0 -15 146 -17 155 -3 8 14 -54 81 -74 81 -9 0 -31 -15 -49 -33z"/> <path d="M9571 7371 c-51 -48 -43 -61 38 -61 39 0 73 5 76 10 7 11 -56 80 -73 80 -5 0 -24 -13 -41 -29z"/> <path d="M2900 7336 c0 -33 13 -55 23 -39 7 13 -4 73 -14 73 -5 0 -9 -15 -9 -34z"/> <path d="M9992 7337 c-15 -34 -15 -54 -2 -62 12 -7 23 35 18 66 -4 24 -5 24 -16 -4z"/> <path d="M2930 7228 c0 -24 9 -61 20 -83 11 -22 20 -44 20 -50 0 -6 9 -29 19 -51 15 -30 21 -35 26 -23 3 9 -3 34 -14 55 -12 21 -21 46 -21 54 0 9 -5 21 -12 28 -6 6 -12 32 -12 58 -1 63 -26 74 -26 12z"/> <path d="M9960 7197 c0 -23 4 -36 10 -32 13 8 13 35 0 55 -7 11 -10 5 -10 -23z"/> <path d="M8428 7180 c-8 -12 -24 -20 -40 -20 -24 0 -28 -4 -28 -28 0 -16 -8 -32 -20 -40 -25 -15 -26 -38 -1 -52 11 -5 21 -20 23 -32 2 -17 10 -23 30 -23 14 0 30 -3 34 -7 12 -13 24 -9 24 7 0 17 23 20 49 6 21 -12 45 1 38 20 -2 8 5 24 16 36 20 22 20 23 1 44 -10 12 -17 32 -16 45 3 19 -1 24 -20 24 -13 0 -31 9 -41 20 -9 11 -21 20 -27 20 -5 0 -15 -9 -22 -20z m52 -89 c20 -38 12 -58 -25 -65 -20 -4 -40 -4 -45 -1 -14 9 -12 59 2 73 18 18 56 14 68 -7z"/> <path d="M4057 7160 c3 -12 23 -33 45 -47 49 -33 48 -60 -4 -88 -61 -32 -49 -45 43 -45 85 0 107 7 152 49 35 34 34 50 -6 89 -29 28 -43 33 -118 42 -46 6 -92 13 -101 16 -13 4 -15 0 -11 -16z m163 -78 c0 -13 -12 -22 -22 -16 -10 6 -1 24 13 24 5 0 9 -4 9 -8z"/> <path d="M8770 7163 c-94 -5 -106 -9 -129 -49 -12 -19 -21 -38 -21 -42 0 -4 17 -26 38 -49 l38 -41 82 -1 c44 0 83 3 86 8 6 8 -47 51 -63 51 -17 0 -22 19 -12 39 6 11 27 29 46 41 37 23 47 51 18 48 -10 -1 -47 -3 -83 -5z m-22 -92 c4 -29 -9 -44 -31 -35 -17 6 -23 44 -10 58 14 14 38 0 41 -23z"/> <path d="M3734 7135 c-20 -22 -26 -45 -36 -125 -3 -24 -1 -25 61 -26 59 -1 69 2 113 35 26 20 48 43 48 51 0 9 -17 33 -38 53 -32 32 -44 37 -82 37 -35 0 -50 -6 -66 -25z"/> <path d="M9041 7121 c-38 -34 -41 -41 -32 -60 7 -12 15 -21 19 -21 5 0 22 -14 39 -30 29 -29 36 -31 95 -28 l63 3 -3 50 c-2 28 -10 67 -19 88 -16 36 -18 37 -67 37 -46 0 -57 -4 -95 -39z"/> <path d="M9930 7113 c0 -10 -3 -29 -6 -43 -5 -17 -3 -22 4 -15 15 15 26 75 13 75 -6 0 -11 -8 -11 -17z"/> <path d="M3256 7097 l-38 -12 46 -22 c58 -29 64 -29 101 2 25 21 28 26 15 35 -20 13 -75 11 -124 -3z"/> <path d="M3307 6973 c-12 -11 -8 -40 8 -53 8 -7 15 -23 15 -36 0 -12 5 -26 10 -29 6 -3 10 -15 10 -26 0 -24 12 -24 32 -1 22 24 34 131 16 136 -31 10 -85 16 -91 9z"/> <path d="M3940 6961 c-53 -22 -59 -33 -25 -51 21 -11 27 -11 43 3 10 10 23 17 29 17 13 0 25 28 17 41 -7 12 -11 11 -64 -10z"/> <path d="M8914 6968 c-7 -12 39 -54 75 -69 18 -7 28 -6 41 6 9 8 22 15 28 15 7 0 12 5 12 10 0 6 -10 10 -23 10 -13 0 -27 4 -32 9 -18 15 -95 30 -101 19z"/> <path d="M9560 6971 l-35 -6 4 -65 c2 -36 8 -68 15 -72 19 -13 36 -9 36 10 0 9 9 35 21 56 20 38 22 78 4 81 -5 1 -26 -1 -45 -4z"/> <path d="M8074 6960 c-61 -9 -74 -16 -74 -37 0 -11 6 -14 24 -9 27 7 45 -8 22 -17 -8 -3 -17 -19 -21 -35 -6 -31 -32 -42 -97 -42 -38 0 -75 -20 -116 -63 l-33 -34 46 -42 c34 -31 53 -42 73 -40 15 1 42 -1 61 -5 34 -8 50 2 51 31 0 18 -65 52 -81 42 -22 -14 -59 -10 -65 6 -8 19 42 85 63 85 9 0 24 -7 34 -16 21 -19 59 -3 59 25 0 10 11 26 25 35 14 9 25 23 25 31 0 8 14 17 36 21 54 10 87 77 36 73 -9 -1 -40 -5 -68 -9z"/> <path d="M3505 6915 c-38 -47 -38 -68 -2 -63 17 2 22 -2 22 -20 0 -13 7 -27 14 -32 24 -14 4 -40 -31 -40 -41 0 -63 -13 -55 -34 8 -19 49 -30 83 -22 14 4 51 30 80 58 62 58 58 70 -19 61 l-50 -6 5 67 c3 36 2 68 -2 71 -4 3 -24 -15 -45 -40z"/> <path d="M9380 6909 c0 -17 5 -40 11 -51 15 -28 -4 -40 -56 -35 -22 2 -49 1 -60 -3 -18 -6 -13 -13 40 -63 64 -60 70 -62 128 -46 41 11 44 16 23 45 -12 15 -17 17 -27 7 -18 -18 -46 -16 -53 4 -7 18 29 63 51 63 26 0 24 28 -4 69 -34 49 -53 52 -53 10z"/> <path d="M3800 6908 c-97 -46 -110 -83 -27 -72 62 8 68 12 43 29 -18 13 -17 14 7 20 14 4 27 15 30 26 6 24 2 24 -53 -3z"/> <path d="M4418 6873 l-44 -48 -2 -88 c-1 -48 0 -93 4 -98 8 -14 31 7 61 54 30 48 47 45 87 -12 50 -71 56 -66 56 46 l0 99 -48 47 c-26 26 -53 47 -58 47 -6 0 -31 -21 -56 -47z"/> <path d="M8402 6880 l-43 -39 -2 -97 c-1 -63 2 -98 9 -101 6 -2 23 15 39 37 15 22 35 40 45 40 10 0 30 -18 45 -40 41 -60 51 -48 47 61 l-4 94 -41 43 c-23 23 -44 42 -47 42 -3 -1 -24 -18 -48 -40z"/> <path d="M9085 6900 c-13 -21 25 -57 67 -63 23 -3 46 -3 50 -1 12 7 -10 44 -26 44 -8 0 -19 7 -26 15 -14 17 -56 20 -65 5z"/> <path d="M3941 6823 c-37 -4 -55 -14 -113 -65 -79 -71 -79 -90 2 -69 59 15 70 10 70 -33 0 -20 8 -40 20 -51 18 -16 20 -16 46 4 15 12 35 21 46 21 29 0 32 26 9 64 -25 40 -21 54 22 81 17 11 33 28 35 38 4 18 -22 20 -137 10z"/> <path d="M4887 6824 c-13 -14 -7 -23 24 -40 25 -12 37 -14 56 -5 32 15 33 14 33 -13 0 -15 -15 -37 -41 -61 -56 -50 -48 -64 38 -61 69 2 93 9 93 27 0 6 12 20 27 33 l27 24 -34 40 c-19 23 -44 43 -55 46 -39 10 -161 17 -168 10z m181 -97 c3 -12 -3 -17 -22 -17 -25 0 -35 18 -19 34 12 12 38 2 41 -17z"/> <path d="M8845 6820 c-7 -12 12 -30 58 -55 32 -18 34 -38 7 -72 -29 -37 -25 -51 15 -59 19 -3 39 -12 46 -20 25 -31 64 0 53 43 -9 32 21 49 60 35 43 -16 76 -15 76 2 0 7 -31 38 -69 68 -67 55 -69 55 -153 63 -61 5 -88 3 -93 -5z"/> <path d="M3080 6813 c0 -5 5 -15 10 -23 8 -12 10 -11 10 8 0 12 -4 22 -10 22 -5 0 -10 -3 -10 -7z"/> <path d="M9763 6689 c-13 -15 -23 -37 -23 -48 0 -12 -4 -21 -10 -21 -5 0 -12 -11 -16 -25 -3 -13 -12 -29 -20 -36 -16 -13 -19 -39 -4 -39 6 0 14 8 17 18 4 9 13 23 20 30 7 7 13 22 13 31 0 10 7 24 15 31 8 7 15 20 15 29 0 9 5 22 11 28 6 6 10 15 8 21 -2 5 -14 -3 -26 -19z"/> <path d="M3140 6683 c0 -10 5 -25 10 -33 7 -11 10 -7 10 18 0 17 -4 32 -10 32 -5 0 -10 -8 -10 -17z"/> <path d="M3366 6659 c4 -24 14 -51 23 -59 9 -8 28 -36 41 -62 13 -27 29 -48 35 -48 16 0 92 -82 107 -115 10 -22 18 -25 59 -25 45 0 78 19 49 28 -7 3 -37 26 -66 53 -38 34 -63 49 -82 49 -24 0 -31 7 -47 43 -17 40 -60 102 -105 156 l-21 23 7 -43z"/> <path d="M9527 6682 c-10 -10 -17 -25 -17 -32 0 -7 -7 -22 -17 -32 -17 -19 -29 -38 -59 -96 -11 -22 -26 -35 -45 -39 -15 -3 -41 -20 -57 -37 -16 -18 -41 -42 -56 -54 -34 -26 -26 -42 19 -42 27 0 39 6 52 28 10 15 26 33 36 40 10 8 29 24 43 37 14 13 29 25 32 27 11 5 69 120 76 151 3 15 11 27 16 27 6 0 10 9 10 20 0 25 -12 26 -33 2z"/> <path d="M8714 6627 c-8 -21 1 -47 16 -47 19 0 23 31 7 48 -15 14 -17 14 -23 -1z"/> <path d="M8835 6609 c-10 -15 1 -23 20 -15 9 3 13 10 10 16 -8 13 -22 13 -30 -1z"/> <path d="M9205 6599 c-4 -6 -5 -12 -3 -14 7 -7 48 7 48 16 0 13 -37 11 -45 -2z"/> <path d="M3175 6591 c-8 -15 37 -73 48 -62 10 10 -4 41 -27 60 -9 8 -16 9 -21 2z"/> <path d="M4296 6537 c-42 -49 -45 -57 -48 -117 l-3 -65 29 -3 c59 -7 116 8 128 33 5 12 21 29 34 36 38 20 26 44 -21 44 -32 0 -41 -4 -43 -20 -2 -11 -15 -28 -29 -39 -21 -15 -27 -16 -38 -5 -7 8 -15 23 -17 34 -2 16 3 20 29 20 18 1 35 4 39 8 13 13 11 127 -2 127 -7 0 -33 -24 -58 -53z"/> <path d="M8716 6502 c-5 -9 62 -102 75 -102 5 0 19 16 30 35 12 19 25 35 30 35 5 0 9 7 9 15 0 8 -4 15 -10 15 -5 0 -10 -7 -10 -15 0 -22 -52 -19 -83 5 -28 22 -34 24 -41 12z"/> <path d="M3230 6494 c0 -3 9 -17 20 -31 11 -14 20 -32 20 -40 0 -8 4 -12 9 -9 10 7 3 46 -9 46 -4 0 -10 9 -13 20 -5 18 -27 29 -27 14z"/> <path d="M8906 6413 c-3 -26 -3 -50 1 -54 11 -10 86 4 85 16 0 6 -11 12 -24 15 -15 4 -26 17 -33 38 -13 44 -21 40 -29 -15z"/> <path d="M4793 6366 c-4 -8 -24 -16 -43 -18 -32 -3 -35 -6 -35 -34 -1 -18 -6 -39 -13 -47 -11 -13 -10 -24 3 -64 17 -51 29 -63 59 -63 10 0 25 -8 32 -17 12 -17 14 -17 43 5 17 13 36 20 42 17 15 -10 39 14 39 39 0 12 7 31 15 42 12 19 12 24 0 40 -8 11 -15 34 -15 52 0 30 -2 32 -34 32 -18 0 -39 7 -46 15 -16 19 -37 19 -47 1z"/> <path d="M3816 6341 c-55 -7 -64 -17 -41 -46 14 -20 15 -20 21 3 3 12 13 22 21 22 23 0 53 -20 53 -35 0 -8 7 -15 16 -15 9 0 24 -10 33 -22 13 -15 23 -19 37 -14 17 7 17 10 -11 34 -17 15 -39 39 -48 55 -10 15 -21 26 -25 25 -4 0 -29 -4 -56 -7z"/> <path d="M7747 6343 c-4 -3 -7 -18 -7 -31 0 -14 -7 -34 -16 -43 -15 -17 -15 -21 0 -53 9 -19 16 -41 16 -50 0 -13 12 -16 60 -16 57 0 61 2 109 47 l50 47 -49 47 c-42 40 -55 47 -102 52 -30 4 -58 4 -61 0z m101 -69 c27 -19 28 -36 3 -58 -23 -21 -41 -14 -41 15 0 21 -16 26 -23 7 -2 -7 -8 -10 -12 -5 -12 11 16 57 34 57 9 0 27 -7 39 -16z"/> <path d="M8303 6300 c-24 -26 -43 -52 -43 -56 0 -5 21 -29 46 -55 l45 -46 99 5 99 5 45 42 c26 23 46 47 46 52 0 5 -22 30 -48 56 l-48 47 -99 0 -100 -1 -42 -49z"/> <path d="M3590 6290 c0 -17 50 -91 65 -97 8 -3 15 -13 15 -22 0 -10 11 -27 24 -38 13 -12 28 -29 34 -39 6 -11 16 -15 26 -11 19 7 12 27 -22 62 -10 12 -36 45 -57 75 -48 69 -85 99 -85 70z"/> <path d="M8963 6255 c-3 -9 -3 -18 0 -22 10 -10 37 6 37 22 0 20 -29 20 -37 0z"/> <path d="M9198 6159 c-19 -10 -25 -49 -8 -49 11 0 33 37 28 50 -2 5 -11 4 -20 -1z"/> <path d="M3955 6142 c-56 -3 -62 -6 -102 -47 l-42 -44 43 -25 c36 -21 44 -32 55 -75 13 -52 31 -77 31 -44 0 10 21 36 46 59 46 39 47 42 51 106 3 75 5 74 -82 70z"/> <path d="M3470 6131 c0 -16 41 -81 51 -81 5 0 9 -5 9 -11 0 -6 15 -28 33 -49 17 -20 39 -46 47 -58 19 -28 34 -29 19 -1 -13 25 -78 112 -89 119 -4 3 -10 15 -14 28 -4 12 -11 22 -16 22 -4 0 -10 9 -13 20 -5 20 -27 28 -27 11z"/> <path d="M4243 6134 c-9 -4 -9 -13 -2 -31 5 -14 7 -41 3 -59 -6 -31 -1 -39 51 -96 32 -35 61 -64 65 -66 15 -6 20 32 10 64 -14 42 0 75 30 67 24 -6 70 21 70 42 0 7 -10 17 -22 20 -13 4 -35 20 -50 36 -24 26 -33 29 -85 28 -32 0 -63 -3 -70 -5z"/> <path d="M8897 6134 c-4 -4 -4 -34 0 -68 5 -54 10 -65 42 -93 45 -40 57 -41 76 -4 8 16 32 43 52 61 33 27 36 33 22 43 -8 7 -24 24 -33 40 -17 25 -23 27 -85 27 -37 0 -71 -3 -74 -6z"/> <path d="M8638 6124 c-4 -3 0 -17 8 -32 8 -15 14 -33 14 -39 0 -7 4 -13 9 -13 11 0 22 55 15 75 -6 15 -35 21 -46 9z"/> <path d="M9400 6095 c-7 -9 -10 -18 -7 -22 8 -7 37 15 37 28 0 14 -16 11 -30 -6z"/> <path d="M8500 6070 c-16 -4 -25 -13 -25 -25 0 -17 7 -20 43 -21 33 -1 42 2 37 13 -3 8 -5 18 -5 23 0 12 -23 17 -50 10z"/> <path d="M8755 6050 c-8 -16 -15 -37 -15 -48 0 -10 -5 -23 -11 -29 -14 -14 -39 -112 -33 -128 8 -20 33 -7 50 27 8 16 26 34 39 40 20 9 24 18 23 49 -1 21 4 45 11 52 9 12 9 21 0 41 -16 35 -45 33 -64 -4z"/> <path d="M8653 6023 c-18 -6 -16 -23 1 -23 17 0 30 16 19 23 -5 2 -14 2 -20 0z"/> <path d="M8554 5953 c-20 -83 0 -96 46 -31 34 46 37 63 14 72 -38 14 -49 6 -60 -41z"/> <path d="M9312 5978 c-7 -7 -12 -19 -12 -27 0 -11 4 -10 20 4 21 19 26 35 12 35 -4 0 -13 -5 -20 -12z"/> <path d="M8830 5918 c0 -7 5 -20 10 -28 12 -19 35 2 27 24 -7 19 -37 21 -37 4z"/> <path d="M3940 5862 c0 -5 14 -21 30 -37 23 -22 29 -36 25 -52 -4 -18 -1 -23 14 -23 29 0 51 -11 51 -24 0 -7 23 -32 52 -57 29 -24 73 -66 100 -94 26 -27 56 -50 65 -50 11 0 17 -7 15 -18 -2 -11 2 -15 11 -11 7 2 27 -2 43 -11 16 -8 36 -15 45 -15 8 0 20 -5 26 -11 11 -11 33 -5 33 10 0 4 -15 15 -34 24 -36 17 -63 36 -103 74 -12 12 -29 26 -37 30 -47 27 -246 211 -246 228 0 12 -56 45 -76 45 -8 0 -14 -4 -14 -8z"/> <path d="M8909 5827 c-25 -23 -72 -64 -103 -92 -31 -27 -74 -66 -95 -85 -49 -45 -84 -74 -124 -102 -18 -12 -34 -26 -37 -30 -6 -8 -108 -80 -235 -165 -84 -57 -97 -64 -155 -94 -25 -12 -52 -28 -60 -34 -28 -23 -195 -103 -250 -120 -30 -9 -82 -29 -115 -44 -33 -16 -71 -31 -85 -35 -14 -4 -34 -11 -45 -15 -43 -17 -91 -33 -123 -41 -18 -4 -38 -12 -45 -18 -7 -5 -29 -13 -51 -16 -21 -4 -46 -11 -55 -16 -106 -53 -614 -110 -936 -104 -278 5 -659 49 -724 83 -11 6 -32 11 -48 11 -15 0 -37 7 -47 15 -11 8 -28 15 -39 15 -20 0 -101 24 -152 46 -16 7 -57 20 -90 30 -33 9 -67 21 -75 25 -63 30 -183 80 -220 91 -25 7 -67 27 -95 45 -27 18 -54 33 -58 33 -5 0 -42 20 -81 45 -40 25 -76 45 -80 45 -4 0 -29 15 -54 32 -26 18 -49 34 -51 35 -2 2 -5 33 -5 70 l-1 67 -35 11 c-19 5 -41 14 -48 19 -17 11 -37 -8 -29 -28 4 -9 13 -12 26 -9 12 3 21 1 21 -5 0 -6 9 -14 20 -17 24 -8 28 -62 5 -71 -8 -4 -15 -12 -15 -18 0 -19 71 -86 98 -93 15 -4 21 -10 17 -21 -8 -21 13 -42 45 -42 15 0 34 -8 43 -18 12 -13 26 -17 47 -14 25 4 30 1 30 -16 0 -15 5 -19 21 -15 13 4 27 -2 39 -15 11 -12 35 -24 54 -27 19 -4 43 -17 54 -29 11 -13 64 -39 126 -61 59 -21 109 -42 112 -46 3 -5 15 -9 27 -9 12 0 37 -9 55 -20 18 -11 43 -20 55 -20 13 0 32 -6 43 -14 10 -8 29 -12 41 -9 13 3 29 -1 38 -11 9 -9 24 -16 34 -16 18 0 100 -25 136 -41 32 -14 178 -38 335 -55 80 -8 165 -20 190 -25 29 -6 70 -6 113 0 47 7 76 6 92 -1 27 -12 590 7 640 22 17 5 71 16 122 24 95 16 237 58 260 77 8 7 30 9 58 5 38 -6 45 -5 45 9 0 13 6 16 24 11 14 -3 28 0 35 7 6 8 30 20 53 27 24 8 50 20 59 27 8 7 23 13 31 13 9 0 21 7 28 15 7 8 18 15 25 15 26 0 121 34 144 52 13 10 32 18 41 18 16 0 62 18 100 38 8 5 31 17 50 27 74 38 146 79 157 91 7 6 32 22 57 33 24 12 52 33 60 46 9 14 25 25 35 25 10 0 24 7 31 15 7 8 18 15 25 15 7 0 36 18 64 40 28 22 54 40 59 40 5 0 20 15 33 34 12 19 39 41 59 50 20 8 68 47 108 86 39 38 74 70 77 70 12 0 65 61 65 75 0 8 10 20 23 26 26 14 46 39 47 57 0 23 -25 12 -71 -31z"/> <path d="M8357 5844 c-4 -4 -4 -48 -1 -98 6 -87 8 -93 42 -128 39 -41 71 -49 79 -19 2 10 18 28 34 40 28 21 29 24 29 111 0 50 -4 90 -9 90 -4 0 -21 -18 -36 -40 -15 -22 -30 -40 -32 -40 -16 0 -44 25 -63 55 -21 35 -31 41 -43 29z"/> <path d="M3812 5709 c2 -7 10 -15 17 -17 8 -3 12 1 9 9 -2 7 -10 15 -17 17 -8 3 -12 -1 -9 -9z"/> <path d="M8923 5551 c-35 -29 -44 -48 -15 -32 34 20 54 40 51 49 -2 6 -19 -2 -36 -17z"/> <path d="M3976 5563 c-7 -7 82 -103 96 -103 13 0 -7 32 -45 73 -38 40 -40 41 -51 30z"/> <path d="M8755 5410 c-3 -5 3 -10 14 -10 12 0 21 5 21 10 0 6 -6 10 -14 10 -8 0 -18 -4 -21 -10z"/> <path d="M4230 5330 c0 -13 28 -25 38 -16 3 4 0 11 -8 16 -20 13 -30 12 -30 0z"/> <path d="M8600 5290 c0 -6 -12 -15 -26 -20 -14 -6 -23 -14 -19 -20 6 -10 35 -2 35 10 0 4 9 10 20 13 23 6 27 27 5 27 -8 0 -15 -5 -15 -10z"/> <path d="M8456 5194 c-4 -11 0 -15 16 -12 12 2 23 9 26 16 6 18 -35 15 -42 -4z"/> <path d="M8325 5109 c-4 -6 -4 -13 -1 -16 8 -8 36 5 36 17 0 13 -27 13 -35 -1z"/> <path d="M4770 5000 c27 -21 50 -26 50 -10 0 12 -34 30 -57 30 -15 0 -14 -4 7 -20z"/> <path d="M7822 4879 c-7 -12 -11 -24 -7 -27 9 -9 40 13 43 32 5 23 -21 20 -36 -5z"/> <path d="M5300 4765 c7 -8 16 -15 21 -15 5 0 9 7 9 15 0 9 -9 15 -21 15 -18 0 -19 -2 -9 -15z"/> <path d="M5350 4751 c0 -10 34 -21 68 -21 25 0 30 15 6 24 -24 9 -74 7 -74 -3z"/> <path d="M7500 4750 c0 -5 11 -10 24 -10 14 0 28 5 31 10 4 6 -7 10 -24 10 -17 0 -31 -4 -31 -10z"/> <path d="M5452 4718 c5 -15 78 -24 78 -10 0 13 -25 22 -57 22 -15 0 -23 -5 -21 -12z"/> <path d="M7393 4723 c-23 -9 -14 -23 15 -23 37 0 60 15 37 24 -19 7 -34 7 -52 -1z"/> <path d="M7265 4702 c-27 -15 -28 -17 -9 -20 28 -4 77 16 69 28 -8 13 -24 11 -60 -8z"/> <path d="M5725 4660 c-4 -6 6 -10 22 -10 22 0 25 2 13 10 -19 12 -27 12 -35 0z"/> <path d="M4627 12113 c-4 -3 -7 -17 -7 -30 0 -28 20 -30 51 -4 l24 19 -28 11 c-33 13 -32 13 -40 4z"/> <path d="M4224 12096 c-7 -19 12 -46 33 -46 21 0 13 54 -10 58 -9 2 -20 -4 -23 -12z"/> <path d="M4151 12051 c-13 -8 -12 -15 4 -50 24 -54 37 -52 33 6 -3 48 -13 59 -37 44z"/> <path d="M3480 12040 c-12 -8 -11 -10 7 -10 12 0 25 5 28 10 8 13 -15 13 -35 0z"/> <path d="M4540 12021 c13 -26 43 -28 38 -3 -2 9 -14 18 -26 20 -21 3 -22 1 -12 -17z"/> <path d="M1910 12000 c0 -11 7 -20 15 -20 8 0 15 9 15 20 0 11 -7 20 -15 20 -8 0 -15 -9 -15 -20z"/> <path d="M3340 12003 c-13 -10 -42 -20 -64 -23 -22 -3 -41 -11 -44 -19 -4 -11 0 -12 14 -6 11 4 37 11 59 15 56 10 125 33 125 42 0 15 -66 8 -90 -9z"/> <path d="M3579 11996 c-37 -25 -78 -81 -99 -133 -8 -22 -11 -76 -8 -170 3 -128 5 -142 32 -196 16 -31 46 -75 66 -97 32 -35 42 -40 81 -40 53 0 119 39 119 71 0 11 7 27 15 35 17 17 20 64 5 64 -5 0 -10 -10 -10 -22 -1 -35 -54 -88 -89 -88 -53 0 -130 90 -131 153 0 11 -6 33 -14 50 -23 52 -34 181 -20 247 12 59 42 90 86 90 34 0 38 -3 38 -25 0 -14 -7 -37 -16 -51 -20 -29 -9 -46 24 -37 13 3 32 22 44 46 l21 41 22 -26 c15 -18 24 -45 28 -89 4 -34 12 -66 19 -70 7 -5 12 -44 12 -109 l1 -101 29 5 c16 3 32 6 36 6 19 0 18 36 -1 93 -11 34 -26 68 -32 75 -6 8 -10 36 -10 64 0 28 -7 69 -17 92 -10 22 -21 60 -25 84 l-7 43 -37 -6 c-28 -5 -41 -2 -51 9 -19 23 -70 19 -111 -8z"/> <path d="M4031 11974 c-27 -34 -27 -44 2 -44 29 0 47 -18 47 -46 0 -13 4 -26 10 -29 5 -3 12 -29 16 -56 7 -53 24 -70 49 -49 21 17 19 37 -4 45 -25 8 -31 23 -45 120 -10 69 -14 80 -32 83 -14 2 -29 -7 -43 -24z"/> <path d="M4460 11981 c0 -5 3 -17 6 -26 5 -12 9 -14 14 -4 5 7 6 18 3 26 -6 15 -23 18 -23 4z"/> <path d="M3050 11943 c-30 -10 -98 -16 -208 -18 -90 -2 -166 -6 -169 -9 -10 -10 332 -7 384 3 26 6 69 13 96 16 26 3 47 10 47 16 0 14 -99 9 -150 -8z"/> <path d="M4375 11948 c-10 -25 -2 -53 15 -53 20 0 24 26 6 50 -13 18 -15 18 -21 3z"/> <path d="M4947 11923 c-12 -11 -8 -40 8 -53 8 -7 15 -22 15 -34 0 -12 7 -31 15 -42 8 -10 15 -29 15 -41 0 -12 5 -25 10 -28 17 -10 23 22 9 47 -7 13 -14 48 -16 78 -2 30 -5 61 -8 68 -5 13 -37 17 -48 5z"/> <path d="M1947 11914 c-4 -4 -7 -20 -7 -36 0 -35 23 -34 28 1 4 25 -10 46 -21 35z"/> <path d="M3987 11895 c-7 -17 11 -121 25 -148 5 -11 7 -21 4 -24 -9 -9 14 -43 28 -43 15 0 43 29 48 49 2 10 -8 17 -27 20 -31 6 -40 26 -52 114 -6 40 -18 55 -26 32z"/> <path d="M4285 11870 c-5 -22 -2 -36 9 -49 10 -11 16 -36 16 -69 0 -55 13 -74 29 -43 15 28 14 64 -5 121 -22 66 -40 81 -49 40z"/> <path d="M3867 11863 c-12 -11 -8 -42 7 -50 8 -4 18 -23 23 -42 5 -19 14 -36 19 -38 10 -3 2 89 -11 125 -5 13 -27 16 -38 5z"/> <path d="M5170 11855 c-10 -12 -8 -19 8 -40 17 -22 21 -23 32 -10 10 12 10 21 2 40 -13 29 -24 31 -42 10z"/> <path d="M1970 11785 c0 -30 25 -34 33 -6 5 22 0 31 -20 31 -7 0 -13 -11 -13 -25z"/> <path d="M5143 11743 c19 -20 30 -24 38 -16 7 7 3 12 -15 17 -14 3 -26 11 -26 16 0 6 -6 10 -12 10 -7 0 0 -12 15 -27z"/> <path d="M4220 11716 c0 -26 25 -46 57 -46 16 1 17 2 2 13 -9 7 -18 21 -20 32 -3 11 -12 21 -22 23 -12 3 -17 -3 -17 -22z"/> <path d="M2007 11723 c-10 -10 -8 -51 2 -58 14 -8 32 30 25 49 -7 17 -16 20 -27 9z"/> <path d="M5235 11668 c9 -56 21 -68 36 -35 15 32 -1 77 -27 77 -13 0 -15 -7 -9 -42z"/> <path d="M3920 11680 c0 -11 9 -29 21 -41 16 -16 23 -18 35 -8 22 18 17 37 -16 54 -37 19 -40 19 -40 -5z"/> <path d="M4914 11664 c3 -9 6 -18 6 -20 0 -2 7 -4 16 -4 11 0 14 5 10 16 -3 9 -6 18 -6 20 0 2 -7 4 -16 4 -11 0 -14 -5 -10 -16z"/> <path d="M4854 11633 c-4 -16 -16 -40 -27 -55 -18 -25 -22 -26 -37 -13 -19 17 -40 3 -40 -26 0 -14 10 -19 51 -21 49 -3 51 -4 64 -42 17 -50 28 -59 66 -59 42 0 59 27 19 31 -23 3 -35 14 -59 57 -26 47 -29 60 -24 104 6 54 -2 69 -13 24z"/> <path d="M2036 11623 c-13 -13 -6 -63 9 -63 10 0 15 10 15 29 0 30 -12 46 -24 34z"/> <path d="M4306 11593 c-28 -20 -74 -44 -104 -55 -79 -28 -164 -72 -189 -100 -12 -13 -36 -49 -52 -80 -26 -48 -31 -69 -31 -123 0 -101 56 -207 119 -225 32 -9 71 -3 71 11 0 5 -18 20 -39 33 -52 33 -101 133 -101 207 0 85 32 129 125 175 82 39 81 40 81 -83 -1 -95 2 -114 23 -155 14 -27 22 -51 18 -54 -3 -4 1 -20 9 -36 8 -16 12 -33 9 -38 -3 -5 -2 -26 4 -45 12 -43 -2 -101 -28 -115 -24 -12 -42 7 -35 37 7 26 -10 37 -36 23 -28 -15 -36 -55 -16 -84 21 -34 52 -41 82 -21 87 57 107 140 66 270 -6 17 -15 57 -22 90 -6 33 -18 89 -26 125 -24 111 -15 139 49 155 48 12 126 127 85 124 -7 0 -35 -16 -62 -36z"/> <path d="M5035 11567 c-9 -33 -2 -42 35 -56 25 -8 32 -7 37 5 3 8 4 16 2 17 -2 1 -18 15 -36 31 l-32 29 -6 -26z"/> <path d="M4670 11555 c-13 -15 -10 -29 25 -110 7 -16 18 -41 24 -55 5 -14 12 -38 13 -55 3 -26 7 -30 33 -30 23 0 33 7 43 28 16 32 7 54 -14 36 -33 -27 -66 23 -78 123 -8 63 -26 87 -46 63z"/> <path d="M2062 11478 c2 -18 8 -33 13 -33 6 0 11 15 13 33 3 24 -1 32 -13 32 -12 0 -16 -8 -13 -32z"/> <path d="M4554 11478 c-28 -27 -36 -40 -30 -54 7 -19 8 -19 21 0 18 24 45 14 45 -17 0 -13 5 -28 10 -33 6 -6 14 -37 18 -70 7 -57 8 -59 39 -62 47 -5 54 29 14 67 -31 29 -37 45 -44 125 -3 26 -12 55 -20 63 -13 14 -19 11 -53 -19z"/> <path d="M4490 11371 c-8 -17 -14 -18 -43 -9 -25 8 -41 6 -71 -6 -37 -16 -38 -17 -32 -55 3 -21 13 -51 21 -67 8 -16 15 -37 15 -46 0 -9 5 -40 11 -68 9 -43 14 -51 31 -48 37 5 43 31 21 79 -50 105 -54 149 -14 149 11 0 25 10 32 21 l11 21 20 -20 c11 -11 24 -41 29 -67 5 -26 14 -54 20 -61 17 -21 47 -17 60 8 10 19 9 24 -6 33 -37 21 -55 46 -55 74 0 37 -16 81 -29 81 -6 0 -15 -9 -21 -19z"/> <path d="M4113 11135 c-3 -9 -4 -17 -2 -18 2 -1 18 -12 35 -24 18 -12 34 -19 38 -16 10 11 7 48 -6 61 -17 17 -58 15 -65 -3z"/> <path d="M2212 10948 c2 -13 8 -23 13 -23 6 0 11 10 13 23 2 15 -2 22 -13 22 -11 0 -15 -7 -13 -22z"/> <path d="M2243 10874 c-4 -10 0 -20 10 -26 10 -5 17 -22 17 -39 0 -38 24 -34 28 4 2 18 -2 29 -12 33 -9 3 -16 15 -16 25 0 23 -18 25 -27 3z"/> <path d="M2300 10745 c0 -8 7 -15 15 -15 8 0 15 7 15 15 0 8 -7 15 -15 15 -8 0 -15 -7 -15 -15z"/> <path d="M2360 10655 c0 -8 7 -15 15 -15 8 0 15 7 15 15 0 8 -7 15 -15 15 -8 0 -15 -7 -15 -15z"/> <path d="M2420 10565 c0 -8 7 -15 15 -15 8 0 15 7 15 15 0 8 -7 15 -15 15 -8 0 -15 -7 -15 -15z"/> <path d="M2482 10474 c4 -21 22 -23 26 -1 2 10 -3 17 -13 17 -10 0 -15 -6 -13 -16z"/> <path d="M2510 10415 c0 -8 7 -15 15 -15 8 0 15 7 15 15 0 8 -7 15 -15 15 -8 0 -15 -7 -15 -15z"/> <path d="M2574 10316 c-8 -21 3 -49 16 -41 5 3 10 15 10 25 0 25 -18 36 -26 16z"/> <path d="M2605 10240 c-7 -12 2 -30 16 -30 5 0 9 9 9 20 0 21 -15 27 -25 10z"/> <path d="M2630 10175 c0 -8 7 -15 15 -15 8 0 15 7 15 15 0 8 -7 15 -15 15 -8 0 -15 -7 -15 -15z"/> <path d="M2722 10088 c5 -16 50 -22 95 -13 52 9 29 25 -38 25 -44 0 -60 -3 -57 -12z"/> </g> </svg> 